<?xml version="1.0" encoding="UTF-8" standalone="no"?><!DOCTYPE svg PUBLIC "-//W3C//DTD SVG 1.1//EN" "http://www.w3.org/Graphics/SVG/1.1/DTD/svg11.dtd"><svg width="100%" height="100%" viewBox="0 0 137 260" version="1.1" xmlns="http://www.w3.org/2000/svg" xmlns:xlink="http://www.w3.org/1999/xlink" xml:space="preserve" xmlns:serif="http://www.serif.com/" style="fill-rule:evenodd;clip-rule:evenodd;stroke-linejoin:round;stroke-miterlimit:2;"><rect id="Artboard1" x="0" y="0" width="136.632" height="259.2" style="fill:none;"/><clipPath id="_clip1"><rect x="0" y="0" width="136.632" height="259.2"/></clipPath><g clip-path="url(#_clip1)"><rect x="-12.819" y="-9.156" width="162.27" height="277.513" style="fill:#27272f;"/><g><path d="M180.091,246.786c0,1.383 -0.035,2.765 -0.098,4.13c-0.11,2.403 -0.318,4.782 -0.624,7.131c-0.203,1.547 -0.44,3.082 -0.724,4.606l-0,0.006c-7.352,39.799 -41.823,69.918 -83.246,69.918c-46.781,-0 -84.699,-38.41 -84.699,-85.791c-0,-18.371 5.697,-35.393 15.404,-49.351c4.154,-5.971 9.036,-11.379 14.52,-16.096c0.104,-0.088 0.208,-0.182 0.312,-0.264c0.515,-0.439 1.03,-0.873 1.556,-1.301c2.007,-1.623 4.084,-3.158 6.236,-4.593c2.858,-1.923 5.836,-3.663 8.92,-5.222c1.376,-0.697 2.771,-1.353 4.188,-1.969c10.291,-4.506 21.64,-7.002 33.563,-7.002l0.068,0c2.87,0 5.705,0.146 8.499,0.434l0.006,-0c7.028,0.714 13.801,2.302 20.216,4.652c13.815,5.057 25.957,13.648 35.368,24.693l0,0.006c1.122,1.318 2.198,2.66 3.234,4.043c0.485,0.639 0.959,1.289 1.423,1.946c9.221,12.996 14.947,28.712 15.774,45.728c0.029,0.651 0.058,1.301 0.069,1.958c0.024,0.78 0.035,1.558 0.035,2.338Z" style="fill:#07111f;fill-rule:nonzero;"/><path d="M98.701,288.342c-3.187,1.166 -4.494,0.153 -5.808,3.815c-0.717,2.004 -1.399,3.597 -3.134,4.881c-2.014,1.494 -3.292,3.609 -4.617,5.701c-0.59,0.937 -1.22,1.864 -2.024,2.625c-0.324,0.311 -0.677,0.586 -1.03,0.867c-0.364,0.294 -0.995,0.962 -1.498,0.956c0.226,0.838 0.613,1.805 -0.006,2.566c-0.677,0.838 -1.972,0.704 -2.632,1.559c-1.718,2.221 2.244,2.526 3.401,2.854c1.724,0.498 0.307,2.156 -0.81,2.308c0.035,0.997 0.481,1.987 0.145,2.959c-0.439,1.277 -1.805,1.465 -1.897,2.883c-0.087,1.395 1.943,3.838 2.725,4.893c0.092,0.118 -1.117,1.125 -1.279,1.201c-0.48,0.228 -0.891,0.223 -1.377,0.018c-1.145,-0.498 -1.966,-1.951 -2.591,-2.97c-1.637,-2.65 -2.771,-5.574 -3.778,-8.515c-1.33,-3.897 -1.504,-7.887 -1.862,-11.948c-0.313,-3.592 -0.243,-6.861 0.225,-10.442c0.353,-2.701 1.036,-7.136 -1.151,-9.282c-1.128,-1.096 -2.881,-1.265 -3.742,-2.683c-1.429,-2.338 -0.874,-5.262 -3.026,-7.266c-1.244,-1.161 -1.157,-2.22 -0.636,-3.773c0.237,-0.715 0.48,-1.424 0.515,-2.18c0.023,-0.564 -0.105,-1.155 0.034,-1.706c0.342,-1.342 1.938,-1.64 2.939,-2.302c0.706,-0.463 0.983,-1.384 1.064,-2.192c0.07,-0.657 0.18,-1.91 -0.468,-2.326c-0.093,-0.059 -0.197,-0.094 -0.318,-0.1c-0.735,-0.059 -1.51,0.017 -2.251,0.012c-0.526,0 -1.128,0.088 -1.642,0c-3.72,-0.628 -3.338,-4.805 -7.48,-5.45c-3.314,-0.515 -5.518,-1.09 -8.717,-2.138c-1.383,-0.452 -3.46,0.029 -4.651,-0.487c-1.973,-0.849 -1.152,-1.165 -1.446,-3.322c-0.515,-3.698 -0.463,-17.081 -6.629,-16.548c-1.505,0.129 -0.475,4.195 1.034,8.427c1.858,5.197 -1.145,5.899 -2.128,1.757c-0.746,-3.135 -0.862,-5.508 -2.024,-8.561c-1.244,-3.258 -0.353,-6.293 -0.458,-9.662c-0.109,-3.34 0.047,-6.669 -0.04,-9.985c-0.081,-3.147 -1.834,-5.784 -2.129,-8.907c-0.3,-3.188 -0.162,-5.906 -1.4,-8.444c4.154,-5.971 9.036,-11.379 14.52,-16.096c0.382,0.451 0.752,0.914 1.11,1.382c-0.364,-0.474 -0.642,-1.054 -0.798,-1.646c0.515,-0.439 1.03,-0.873 1.556,-1.301c0.139,0.27 0.255,0.533 0.365,0.721c0.879,1.488 2.383,2.736 3.783,3.709c1.446,1.008 3.141,1.723 4.922,1.664c-0.792,-0.416 -3.447,0.118 -2.661,-2.326c2.008,1.095 3.783,0.152 5.774,0.698c2.256,0.614 3.262,2.414 5.923,2.197c2.337,-0.188 4.199,-2.057 6.542,-1.114c2.39,0.961 1.713,2.268 4.611,1.466c2.164,-0.592 2.302,-2.058 2.985,0.685c0.572,2.32 -0.723,3.252 -2.216,4.465c-1.712,1.388 -2.881,1.729 -4.893,2.209c-2.638,0.639 -2.453,0.715 -3.899,3.094c-0.579,0.949 -1.163,1.922 -1.62,2.936c-0.567,1.259 -1.128,3.117 -0.463,4.447c0.382,0.762 1.151,1.225 1.863,1.623c0.694,0.387 1.666,0.481 2.128,1.207c0.365,0.575 0.07,1.225 -0.005,1.846c-0.076,0.592 -0.058,1.213 -0.041,1.811c0.029,0.943 0.18,2.18 1.012,2.766c2.794,1.939 2.129,-2.169 2.997,-3.235c1.128,-1.383 2.487,0.194 3.801,-1.008c0.994,-0.914 0.549,-4.278 0.723,-5.602c0.312,-2.425 2.487,-8.742 4.772,-3.832c0.793,1.717 -0.393,3.217 1.689,4.295c1.464,0.762 3.668,-0.703 5.021,0.428c1.597,1.33 0.128,2.478 0.139,4.008c0.012,1.974 0.058,1.488 1.498,2.865c0.619,0.598 1.192,1.342 1.689,2.039c0.712,0.99 1.637,2.696 0.573,3.774c-0.752,0.768 -1.938,0.686 -2.886,0.481c-1.632,-0.34 -2.928,-1.202 -4.391,-1.958c-1.169,-0.603 -2.997,-1.406 -4.061,-0.17c-0.723,0.844 -0.451,2.134 0.353,2.813c1.197,1.014 2.753,0.58 4.159,0.539c1.365,-0.035 2.933,0.112 3.916,1.184c0.931,1.008 0.851,2.713 -0.035,3.762c-0.439,0.522 -1.064,0.92 -1.723,1.078c-2.389,0.551 -4.553,-1.424 -6.936,-1.148c-0.955,0.105 -1.244,1.019 -1.342,1.857c-0.104,0.873 -0.451,1.324 -1.371,1.166c-0.787,-0.14 -1.631,-0.363 -2.436,-0.164c-1.11,0.282 -1.555,1.43 -1.839,2.443c-0.717,2.549 -0.775,5.034 -3.291,6.704c-2.378,1.576 -3.367,0.58 -3.112,4.131c0.087,1.225 0.566,6.61 -2.1,3.692c-1.626,-1.776 1.284,-5.262 -2.696,-5.368c-2.632,-0.076 -1.978,2.35 -4.57,1.869c-2.284,-0.433 -3.968,-2.613 -5.675,0.914c-0.433,0.898 -0.231,2.209 -0.59,3.2c-0.399,1.089 -1.591,1.898 -1.44,3.187c0.087,0.71 0.301,1.618 0.735,2.198c1.602,2.139 5.333,-0.779 6.814,-1.7c0.619,-0.387 1.55,-1.364 2.343,-1.083c1.319,0.469 0.005,2.25 -0.515,2.848c-0.949,1.083 -2.742,2.325 -1.249,3.79c0.474,0.47 1.127,0.709 1.775,0.768c1.204,0.106 2.407,-0.187 3.616,-0.099c0.682,0.046 1.903,0.281 1.382,1.183c-0.561,0.979 -2.77,2.062 -1.319,3.381c1.076,0.973 1.51,-0.539 2.517,-0.463c0.289,0.024 0.578,0.106 0.844,0.211c0.411,0.159 0.718,0.487 1.186,0.44c0.388,-0.041 0.706,-0.287 0.92,-0.61c0.249,-0.369 0.33,-0.837 0.573,-1.219c0.358,-0.556 0.885,-1.007 1.463,-1.318c0.85,-0.457 1.828,-0.492 2.765,-0.509c0.261,-0 0.758,-0.136 0.96,0.087c0.237,0.258 -0.069,0.979 -0.173,1.249c-0.145,0.381 -0.393,0.72 -0.526,1.107c-0.116,0.345 -0.209,0.767 0.063,1.066c0.307,0.34 0.775,0.2 1.076,-0.064c0.231,-0.211 0.405,-0.487 0.544,-0.768c0.295,-0.568 0.347,-1.341 1.082,-1.505c1.075,-0.241 1.607,1.646 2.157,2.214c0.555,0.586 1.273,1.02 1.95,1.448c1.643,1.048 3.592,1.535 5.46,1.998c3.599,0.897 3.425,2.379 5.593,5.027c3.108,3.792 14.196,0.698 14.144,7.858c-0.017,2.344 -2.469,4.014 -2.701,6.533c-0.272,3.006 1.169,5.21 -2.216,6.452Z" style="fill:#1b1a2f;fill-rule:nonzero;"/><path d="M180.091,246.786c0,1.383 -0.035,2.765 -0.098,4.13c-0.051,0.029 -0.11,0.059 -0.161,0.094c-1.384,0.855 -2.292,2.314 -3.871,2.918c-7.185,2.719 -6.49,-10.318 -13.171,-11.338c-0.11,2.572 1.898,4.143 3.049,6.229c1.243,2.256 2.521,4.477 3.649,6.791c1.267,2.59 1.944,3.733 4.958,3.235c1.157,-0.194 3.581,-1.5 4.923,-0.798c-0.203,1.547 -0.44,3.082 -0.724,4.606l-0,0.006c-2.314,2.402 -6.467,4.647 -7.78,5.502c-1.637,1.073 -3.945,1.893 -4.107,4.161c-0.168,2.296 2.158,3.943 2.152,6.398c-0.012,3.551 -2.367,2.386 -3.76,4.84c-1.401,2.455 1.868,2.409 1.192,5.134c-2.129,0.451 -2.546,3.017 -3.847,4.5c-0.828,0.931 -2.239,1.576 -2.875,2.602c-0.62,0.996 -0.006,2.109 -0.92,3.035c-1.232,1.248 -2.181,0.322 -3.54,0.615c-3.685,0.791 -3.378,1.781 -5.172,-1.371c-0.81,-1.424 -2.915,-3.042 -1.377,-4.67c-3.979,-3.82 -5.356,-10.876 -3.239,-16.032c1.511,-3.669 1.203,-3.1 -0.682,-6.581c-1.18,-2.174 -0.197,-4.283 -2.662,-5.76c-2.099,-1.26 -5.067,-0.644 -7.363,-0.158c-3.02,0.633 -5.039,0.92 -8.151,-0.486c-2.452,-1.107 -3.286,-3.593 -5.016,-5.45c-2.781,-2.988 -0.786,-3.528 0.215,-6.903c0.399,-1.348 0.104,-3.023 0.584,-4.289c0.399,-1.067 1.423,-1.582 1.845,-2.584c0.47,-1.113 0.168,-2.326 0.642,-3.463c0.406,-0.955 1.418,-1.295 1.707,-2.485c1.799,0.13 2.308,-1.763 3.766,-2.425c1.22,-0.551 3.291,-0.328 4.663,-0.662c1.677,-0.416 2.192,-0.833 3.429,-2.004c1.041,-0.979 1.43,-2.836 3.362,-1.641c-1.713,4.641 6.588,7.225 9.978,6.961c0.943,-3.785 3.344,-1.066 6.236,-0.961c2.209,0.082 5.149,-0.193 7.444,-0.392c-0.693,-1.424 -0.52,-3.135 -1.018,-4.606c-1.932,-0.269 -2.967,1.196 -4.859,0.516c-1.272,-0.463 -2.169,-1.723 -3.088,-2.631c-0.128,0.381 -0.608,0.785 -0.718,1.336c-4.142,-0.457 -2.233,-2.871 -3.505,-5.485c-0.712,-1.459 -3.396,-2.953 -4.9,-3.492c-2.412,-0.868 -4.76,-0.129 -2.829,2.519c1.4,1.916 3.61,1.881 4.594,4.436c-2.349,-0.34 -1.806,2.947 -3.575,3.381c0.896,-2.771 -0.926,-7.864 -4.229,-8.66c-2.667,-0.645 -4.35,3.357 -5.536,5.127c-1.845,2.748 -4.211,3.533 -7.334,2.426c-1.997,-0.709 -5.757,-1.688 -4.027,-4.711c1.532,-2.69 7.37,-0.528 10.054,-0.598c0.387,-3.704 -6.792,-2.244 -2.695,-6.247c1.035,-1.013 2.672,-2.332 3.909,-3.287c1.018,-0.779 2.939,-1.682 4.16,-1.934c1.96,-0.404 2.99,0.229 4.755,-0.902c0.774,-0.498 0.96,-1.336 1.891,-1.764c0.781,-0.357 1.833,0.182 2.724,-0.293c1.724,-0.926 1.534,-2.543 2.673,-3.938c1.122,-1.376 2.927,-1.33 3.904,-2.771c-1.741,-0.879 -4.882,-1.887 -5.928,-3.363c0.359,-1.518 3.158,-7.19 0.798,-7.929c-3.489,-1.09 -3.066,6.053 -3.268,7.489c-0.296,2.063 -0.915,6.733 -3.055,7.471c-1.55,0.533 -2.551,-0.715 -3.859,-1.143c-1.283,-0.421 -2.707,-0.123 -3.903,-0.509c-4.143,-1.348 -0.927,-4.213 1.312,-5.679c3.535,-2.314 4.251,-4.376 6.237,-7.629c0.861,-1.412 3.771,-5.197 5.159,-6.029c2.73,-1.641 6.109,1.119 8.798,1.459c0.318,0.041 0.879,0.07 1.545,0.117l0,0.006c1.122,1.318 2.198,2.66 3.234,4.043c-1.754,0.797 -5.86,1.307 -7.26,1.84c2.227,1.512 4.801,4.512 7.37,2.197c0.711,-0.638 0.804,-1.382 1.313,-2.091c9.221,12.996 14.947,28.712 15.774,45.728c-1.498,-1.031 -2.255,-3.17 -4.877,-2.602c1.239,1.108 2.176,3.089 3.495,3.985c0.584,0.398 1.029,0.54 1.451,0.575c0.024,0.78 0.035,1.558 0.035,2.338Z" style="fill:#1b1a2f;fill-rule:nonzero;"/><path d="M124.033,168.266c-0.411,0.85 -1.539,0.703 -1.921,1.394c-0.492,0.879 -0.966,4.899 -0.914,5.679c0.128,2.103 1.314,3.1 0.382,5.261c-0.295,0.68 -1.21,0.967 -1.481,1.729c-0.255,0.709 0.023,2.051 -0.041,2.807c-2.233,0.627 -0.358,1.969 -1.238,3.199c-0.797,1.119 -4.06,1.448 -5.316,1.635c-1.867,4.395 -8.196,3.826 -10.47,8.397c-0.868,1.752 0.249,6.059 -1.915,6.891c-2.244,0.867 -3.03,-2.151 -3.725,-3.504c-0.931,-1.811 -2.511,-3.645 -2.354,-5.807c0.127,-1.793 1.544,-3.651 2.128,-5.356c0.567,-1.658 2.031,-4.107 2.094,-5.813c0.076,-1.921 -1.364,-4.482 -1.763,-6.416c-1.152,-5.537 -9.291,-3.621 -7.567,-10.583c1.886,-0.146 4.061,1.084 5.837,-0.07c1,-0.656 1.672,-2.561 2.696,-3.434c1.017,-0.861 1.862,-1.189 3.036,-1.775c0.84,-0.422 1.654,-0.773 2.465,-1.078l0.006,-0c7.028,0.714 13.801,2.302 20.216,4.652c0.047,0.785 0.099,1.659 -0.155,2.192Z" style="fill:#1b1a2f;fill-rule:nonzero;"/><path d="M66.469,177.852c-0.306,2.25 -0.092,3.493 -2.822,3.744c0.115,0.481 -0.133,1.278 0.034,1.776c-4.749,-1.91 -15.271,-1.043 -14.953,-8.191c2.858,-1.923 5.836,-3.663 8.92,-5.222c1.376,1.219 1.487,3.41 2.99,5.133c1.828,2.081 1.644,0.663 3.76,0.089c0.834,-0.229 2.066,-0.933 2.806,0.069c0.984,1.342 -0.584,1.53 -0.735,2.602Z" style="fill:#1b1a2f;fill-rule:nonzero;"/><path d="M80.833,188.773c2.238,3.045 0.133,4.377 -3.31,4.232c0.142,2.454 2.24,1.776 3.528,3.043c1.177,1.159 0.664,3.341 2.504,3.765c6.097,1.408 -2.468,-8.111 2.612,-7.083c1.734,0.351 1.658,3.395 3.811,2.867c1.881,-0.461 1.927,-3.095 1.179,-4.402c-0.899,-1.571 -3.927,-1.691 -4.36,-3.458c-0.499,-2.038 1.791,-1.949 0.253,-3.698c-0.626,-0.712 -2.076,-0.366 -2.797,-1.343c-1.396,-1.897 0.138,-1.923 -2.124,-3.107c-1.254,-0.655 -2.948,0.316 -2.776,-2.04c-2.647,-0.495 -8.943,1.044 -6.374,4.915c0.934,1.407 3.198,1.561 4.502,2.536c1.291,0.965 2.396,2.473 3.352,3.773Z" style="fill:#1b1a2f;fill-rule:nonzero;"/><path d="M95.467,160.988c-2.405,0.709 -4.887,1.242 -5.482,1.752c-1.673,1.43 -1.73,3.393 -3.761,4.688c-1.921,1.225 -4.159,2.045 -6.114,3.264c3.748,2.168 3.204,4.272 -0.805,3.451c-1.486,-0.305 -2.88,-0.188 -4.384,-0.41c-1.29,-0.188 -2.91,-1.74 -4.223,-2.209c-1.602,-0.574 -3.211,-0.686 -4.882,-0.92c-1.932,-0.27 -4.547,-0.692 -3.98,-2.614c10.291,-4.506 21.64,-7.002 33.563,-7.002l0.068,0Z" style="fill:#1b1a2f;fill-rule:nonzero;"/><path d="M180.09,246.79c0,1.382 -0.032,2.764 -0.095,4.13c-0.11,2.397 -0.323,4.779 -0.623,7.128c-0.205,1.55 -0.442,3.084 -0.726,4.603l-0,0.008c-7.351,39.801 -41.824,69.918 -83.246,69.918c-34.102,-0 -63.486,-20.408 -76.904,-49.822c10.799,5.066 22.821,7.887 35.498,7.887c5.885,0 11.635,-0.607 17.181,-1.774c11.895,-2.476 22.884,-7.487 32.381,-14.447c6.422,-4.698 12.165,-10.284 17.055,-16.589c5.025,-6.472 9.143,-13.695 12.173,-21.471c0.544,-1.382 1.056,-2.788 1.514,-4.211c1.238,-3.7 2.217,-7.519 2.942,-11.426l0,-0.008c0.237,-1.287 0.442,-2.581 0.623,-3.876c0.04,-0.24 0.071,-0.488 0.103,-0.727c0.307,-2.357 0.513,-4.731 0.623,-7.136c-0,-0.064 0.008,-0.136 0.008,-0.2c0.055,-1.302 0.095,-2.613 0.095,-3.931c-0,-0.775 -0.016,-1.558 -0.04,-2.333c-0,-0.08 -0,-0.16 -0.007,-0.24c-0.009,-0.583 -0.032,-1.15 -0.064,-1.718c-0.544,-11.267 -3.234,-21.966 -7.675,-31.683c11.044,5.17 20.802,12.681 28.65,21.895l0,0.007c1.12,1.319 2.201,2.661 3.234,4.044c0.481,0.639 0.963,1.286 1.421,1.942c9.222,13 14.948,28.71 15.776,45.73c0.031,0.648 0.055,1.303 0.071,1.958c0.024,0.783 0.032,1.558 0.032,2.342Z" style="fill:#07111f;fill-rule:nonzero;"/><path d="M180.09,246.79c0,1.382 -0.032,2.764 -0.095,4.13c-0.054,0.024 -0.11,0.057 -0.165,0.088c-1.381,0.855 -2.288,2.317 -3.866,2.917c-7.186,2.725 -6.492,-10.316 -13.174,-11.339c-0.11,2.573 1.894,4.147 3.046,6.233c1.246,2.253 2.524,4.475 3.652,6.792c1.269,2.589 1.94,3.732 4.962,3.236c1.152,-0.2 3.573,-1.502 4.922,-0.799c-0.205,1.55 -0.442,3.084 -0.726,4.603l-0,0.008c-2.311,2.405 -6.468,4.65 -7.778,5.505c-1.641,1.071 -3.951,1.886 -4.11,4.155c-0.166,2.302 2.154,3.948 2.154,6.401c-0.016,3.547 -2.367,2.389 -3.762,4.842c-1.397,2.453 1.868,2.405 1.191,5.131c-2.13,0.455 -2.549,3.02 -3.842,4.498c-0.829,0.934 -2.24,1.583 -2.88,2.605c-0.615,0.999 -0.007,2.109 -0.922,3.036c-1.231,1.247 -2.178,0.32 -3.535,0.616c-3.683,0.791 -3.383,1.781 -5.174,-1.375c-0.813,-1.422 -2.919,-3.037 -1.373,-4.666c-3.983,-3.819 -5.356,-10.876 -3.242,-16.038c1.507,-3.668 1.199,-3.091 -0.686,-6.576c-1.175,-2.174 -0.198,-4.283 -2.659,-5.761c-2.098,-1.263 -5.064,-0.647 -7.359,-0.16c-3.021,0.631 -5.042,0.919 -8.157,-0.487c-2.453,-1.103 -3.282,-3.589 -5.018,-5.45c-0.378,-0.407 -0.669,-0.775 -0.883,-1.103c5.025,-6.472 9.143,-13.695 12.173,-21.471c0.764,-0.047 1.522,-0.08 2.137,-0.232c1.673,-0.415 2.194,-0.838 3.431,-2.005c1.041,-0.983 1.429,-2.837 3.361,-1.638c-1.712,4.634 6.587,7.224 9.979,6.96c0.938,-3.788 3.344,-1.071 6.231,-0.967c2.209,0.088 5.152,-0.192 7.447,-0.392c-0.694,-1.422 -0.521,-3.132 -1.018,-4.602c-1.932,-0.272 -2.965,1.198 -4.859,0.511c-1.269,-0.455 -2.17,-1.718 -3.092,-2.629c-0.126,0.384 -0.608,0.783 -0.718,1.335c-4.141,-0.456 -2.233,-2.869 -3.502,-5.482c-0.71,-1.462 -3.392,-2.956 -4.899,-3.492c-2.414,-0.871 -4.764,-0.128 -2.832,2.517c1.404,1.918 3.613,1.886 4.6,4.435c-2.352,-0.336 -1.807,2.948 -3.582,3.38c0.899,-2.765 -0.923,-7.863 -4.228,-8.654c-2.667,-0.647 -4.347,3.356 -5.53,5.122c-0.442,0.655 -0.907,1.199 -1.412,1.622c1.238,-3.7 2.217,-7.519 2.942,-11.426l0,-0.008c0.237,-1.287 0.442,-2.581 0.623,-3.876c0.679,-0.312 1.365,-0.551 1.909,-0.663c1.965,-0.4 2.99,0.232 4.757,-0.895c0.773,-0.503 0.962,-1.342 1.893,-1.766c0.781,-0.36 1.83,0.184 2.721,-0.296c1.728,-0.927 1.532,-2.541 2.674,-3.939c1.12,-1.374 2.927,-1.327 3.905,-2.773c-1.743,-0.879 -4.882,-1.886 -5.932,-3.356c0.364,-1.518 3.163,-7.191 0.797,-7.935c-3.487,-1.086 -3.061,6.057 -3.265,7.496c-0.293,2.061 -0.916,6.728 -3.054,7.471c-1.554,0.527 -2.555,-0.719 -3.857,-1.151c-0.591,-0.192 -1.199,-0.231 -1.814,-0.256c0.055,-1.302 0.095,-2.613 0.095,-3.931c-0,-0.775 -0.016,-1.558 -0.04,-2.333c-0,-0.08 -0,-0.16 -0.007,-0.24c2.832,-2.093 3.588,-4.075 5.411,-7.056c0.859,-1.406 3.77,-5.194 5.158,-6.025c2.73,-1.646 6.106,1.119 8.796,1.454c0.323,0.048 0.883,0.073 1.546,0.121l0,0.007c1.12,1.319 2.201,2.661 3.234,4.044c-1.751,0.799 -5.861,1.302 -7.256,1.837c2.223,1.511 4.796,4.515 7.367,2.198c0.71,-0.639 0.805,-1.382 1.31,-2.093c9.222,13 14.948,28.71 15.776,45.73c-1.499,-1.031 -2.256,-3.172 -4.875,-2.605c1.238,1.111 2.177,3.093 3.495,3.988c0.584,0.399 1.025,0.543 1.451,0.575c0.024,0.783 0.032,1.558 0.032,2.342Z" style="fill:#1b1a2f;fill-rule:nonzero;"/></g></g></svg>