<svg xmlns="http://www.w3.org/2000/svg" width="100%" height="100%" viewBox="0 0 461 260" fill-rule="evenodd" stroke-linejoin="round" stroke-miterlimit="2" xmlnsV="https://vecta.io/nano"><clipPath id="A"><path d="M0 0h460.8v259.2H0z"/></clipPath><g clip-path="url(#A)"><path d="M0 0h460.8v259.2H0z" fill="#27272f"/><g fill-rule="nonzero"><path d="M478.021 245.017l-.135 5.606-.859 9.68-.995 6.252v.008c-10.109 54.021-57.505 94.903-114.46 94.903-64.321 0-116.458-52.136-116.458-116.449 0-24.935 7.835-48.04 21.181-66.986 5.711-8.105 12.423-15.446 19.964-21.849.143-.119.286-.246.429-.357l2.14-1.766c2.76-2.203 5.615-4.287 8.574-6.235 3.929-2.61 8.025-4.972 12.264-7.087 1.893-.947 3.81-1.838 5.759-2.673 14.149-6.116 29.754-9.504 46.147-9.504h.094a115.65 115.65 0 0 1 11.685.588h.008c9.664.97 18.977 3.126 27.798 6.315 18.994 6.865 35.688 18.525 48.629 33.517v.008a113.57 113.57 0 0 1 4.446 5.488c.667.867 1.319 1.75 1.956 2.641 12.678 17.641 20.552 38.972 21.69 62.07l.095 2.657c.032 1.058.048 2.115.048 3.173z" fill="#07111f"/><g fill="#1b1a2f"><path d="M366.113 301.424c-4.382 1.582-6.18.207-7.986 5.178-.985 2.72-1.924 4.883-4.31 6.626-2.768 2.027-4.525 4.898-6.347 7.738-.811 1.272-1.678 2.529-2.784 3.563-.445.422-.931.796-1.416 1.177-.501.398-1.367 1.305-2.059 1.297.31 1.138.843 2.45-.009 3.483-.93 1.138-2.711.955-3.619 2.117-2.362 3.013 3.086 3.428 4.677 3.872 2.37.677.422 2.928-1.114 3.134.049 1.353.661 2.697.2 4.017-.605 1.733-2.482 1.988-2.609 3.913-.12 1.894 2.672 5.209 3.746 6.641.127.16-1.535 1.527-1.757 1.63-.661.31-1.225.304-1.894.025-1.575-.677-2.704-2.649-3.563-4.032-2.251-3.596-3.81-7.565-5.194-11.557-1.829-5.29-2.068-10.705-2.561-16.218-.429-4.875-.334-9.314.31-14.173.486-3.668 1.424-9.687-1.583-12.599-1.55-1.488-3.96-1.717-5.145-3.643-1.965-3.173-1.201-7.142-4.16-9.862-1.71-1.575-1.59-3.014-.875-5.122.326-.97.66-1.932.708-2.959.032-.764-.143-1.567.048-2.315.469-1.821 2.664-2.226 4.04-3.125.97-.629 1.352-1.878 1.463-2.975.096-.891.247-2.593-.644-3.157a.88.88 0 0 0-.437-.136c-1.01-.08-2.076.023-3.094.017-.724 0-1.551.119-2.259 0-5.114-.853-4.589-6.522-10.284-7.398-4.557-.7-7.588-1.479-11.986-2.903-1.901-.613-4.757.04-6.395-.66-2.712-1.152-1.583-1.582-1.988-4.509-.708-5.019-.637-23.185-9.115-22.462-2.068.175-.652 5.695 1.423 11.438 2.554 7.055-1.574 8.008-2.926 2.386-1.026-4.256-1.186-7.477-2.784-11.621-1.71-4.421-.485-8.542-.629-13.115-.15-4.534.064-9.051-.055-13.553-.111-4.272-2.522-7.851-2.927-12.089-.413-4.327-.223-8.017-1.925-11.462 5.711-8.105 12.423-15.446 19.964-21.849a49.62 49.62 0 0 1 1.527 1.877c-.501-.643-.883-1.431-1.098-2.234l2.14-1.766c.191.365.35.724.501.978 1.209 2.02 3.277 3.714 5.202 5.035 1.988 1.368 4.318 2.338 6.768 2.258-1.09-.564-4.74.16-3.659-3.157 2.76 1.487 5.202.207 7.938.947 3.102.834 4.486 3.277 8.145 2.982 3.213-.255 5.774-2.791 8.995-1.511 3.285 1.304 2.355 3.078 6.339 1.989 2.975-.804 3.166-2.792 4.104.93.788 3.15-.994 4.414-3.046 6.061-2.354 1.884-3.961 2.346-6.729 2.998-3.627.867-3.372.971-5.36 4.2-.796 1.288-1.599 2.609-2.228 3.984-.779 1.711-1.55 4.232-.636 6.037.526 1.034 1.583 1.663 2.561 2.204.955.524 2.291.651 2.927 1.638.501.78.096 1.662-.007 2.506-.104.802-.08 1.646-.057 2.457.041 1.281.247 2.959 1.392 3.754 3.842 2.633 2.927-2.943 4.12-4.39 1.551-1.878 3.421.263 5.226-1.368 1.368-1.241.756-5.807.994-7.604.43-3.293 3.42-11.867 6.562-5.202 1.09 2.331-.541 4.367 2.322 5.83 2.013 1.034 5.044-.954 6.905.581 2.194 1.805.174 3.364.19 5.441.016 2.679.08 2.02 2.06 3.888.851.812 1.639 1.822 2.322 2.768.979 1.344 2.252 3.659.789 5.122-1.035 1.043-2.665.931-3.97.653-2.242-.461-4.025-1.631-6.037-2.657-1.606-.819-4.12-1.909-5.583-.23-.994 1.145-.621 2.895.485 3.817 1.646 1.376 3.786.787 5.719.732 1.877-.048 4.032.151 5.384 1.607 1.281 1.368 1.17 3.682-.048 5.106a4.58 4.58 0 0 1-2.37 1.464c-3.284.747-6.259-1.933-9.536-1.559-1.312.143-1.71 1.383-1.845 2.521-.143 1.185-.62 1.798-1.885 1.583-1.082-.191-2.243-.493-3.349-.223-1.527.382-2.139 1.941-2.529 3.316-.986 3.46-1.066 6.833-4.526 9.1-3.269 2.139-4.629.787-4.279 5.607.12 1.663.78 8.972-2.887 5.012-2.235-2.412 1.766-7.144-3.706-7.287-3.619-.103-2.721 3.19-6.284 2.537-3.141-.588-5.456-3.547-7.802 1.24-.597 1.219-.318 2.999-.812 4.344-.548 1.478-2.187 2.576-1.98 4.326.119.963.414 2.196 1.01 2.984 2.203 2.902 7.333-1.059 9.37-2.308.851-.525 2.131-1.852 3.221-1.471 1.813.637.008 3.055-.708 3.866-1.305 1.47-3.77 3.157-1.718 5.146.652.636 1.551.962 2.442 1.041 1.654.144 3.308-.254 4.971-.134.938.063 2.617.381 1.901 1.605-.771 1.329-3.81 2.8-1.814 4.59 1.48 1.32 2.076-.732 3.46-.629.398.033.796.144 1.162.287.564.216.986.66 1.63.597.532-.056.97-.39 1.264-.827.342-.501.454-1.137.788-1.656.493-.754 1.217-1.367 2.012-1.788 1.169-.62 2.513-.668 3.802-.692.358 0 1.042-.183 1.32.118.326.35-.095 1.329-.238 1.695-.199.518-.541.979-.724 1.503-.159.47-.287 1.042.087 1.448.422.461 1.066.27 1.48-.088.318-.285.557-.66.747-1.041.406-.772.477-1.822 1.488-2.044 1.479-.327 2.21 2.234 2.967 3.006.763.796 1.749 1.384 2.68 1.965 2.259 1.423 4.939 2.083 7.508 2.712 4.948 1.217 4.709 3.229 7.69 6.824 4.273 5.146 19.519.947 19.448 10.666-.024 3.181-3.396 5.449-3.714 8.867-.375 4.081 1.607 7.072-3.047 8.758zm111.908-56.407l-.135 5.606-.222.128c-1.902 1.161-3.151 3.142-5.323 3.961-9.878 3.69-8.923-14.006-18.109-15.39-.151 3.491 2.609 5.624 4.192 8.455 1.71 3.062 3.466 6.077 5.017 9.217 1.743 3.516 2.674 5.067 6.817 4.392 1.591-.263 4.924-2.037 6.769-1.083-.279 2.1-.604 4.183-.995 6.252v.008c-3.181 3.261-8.892 6.307-10.697 7.469-2.251 1.456-5.425 2.569-5.647 5.647-.231 3.117 2.967 5.353 2.959 8.685-.017 4.82-3.254 3.237-5.17 6.57-1.926 3.332 2.569 3.269 1.638 6.967-2.927.612-3.499 4.096-5.289 6.109-1.138 1.264-3.078 2.138-3.953 3.531-.852 1.352-.008 2.863-1.265 4.12-1.693 1.694-2.999.437-4.867.835-5.066 1.073-4.645 2.418-7.111-1.861-1.113-1.933-4.008-4.129-1.893-6.34-5.472-5.185-7.364-14.761-4.453-21.761 2.076-4.979 1.653-4.206-.939-8.931-1.622-2.951-.271-5.814-3.659-7.819-2.886-1.71-6.968-.874-10.124-.214-4.153.859-6.928 1.249-11.208-.66-3.372-1.503-4.518-4.877-6.896-7.398-3.825-4.055-1.082-4.788.295-9.369.549-1.83.143-4.104.803-5.822.549-1.448 1.957-2.148 2.537-3.508.645-1.511.231-3.157.883-4.701.557-1.295 1.949-1.756 2.347-3.372 2.473.176 3.173-2.393 5.178-3.292 1.677-.748 4.525-.446 6.41-.899 2.306-.564 3.014-1.129 4.716-2.72 1.432-1.328 1.965-3.85 4.622-2.227-2.355 6.299 9.058 9.807 13.719 9.449 1.297-5.138 4.598-1.448 8.575-1.305 3.037.112 7.079-.262 10.236-.533-.954-1.932-.715-4.255-1.4-6.251-2.657-.366-4.08 1.623-6.681.7-1.75-.628-2.982-2.338-4.246-3.571-.176.517-.836 1.066-.987 1.813-5.696-.62-3.07-3.897-4.82-7.445-.979-1.98-4.669-4.008-6.737-4.739-3.316-1.178-6.546-.176-3.89 3.419 1.926 2.601 4.964 2.553 6.316 6.021-3.229-.461-2.483 4.001-4.915 4.589 1.233-3.762-1.273-10.673-5.815-11.755-3.667-.875-5.981 4.557-7.611 6.96-2.538 3.73-5.79 4.795-10.085 3.292-2.744-.962-7.914-2.29-5.536-6.394 2.107-3.651 10.133-.717 13.823-.812.533-5.027-9.338-3.046-3.705-8.478 1.423-1.376 3.674-3.166 5.375-4.462 1.4-1.058 4.041-2.283 5.719-2.625 2.696-.549 4.112.31 6.538-1.225 1.065-.676 1.321-1.813 2.601-2.394 1.073-.485 2.52.246 3.746-.398 2.37-1.256 2.108-3.452 3.675-5.345 1.542-1.869 4.024-1.805 5.367-3.761-2.393-1.194-6.712-2.562-8.15-4.566.492-2.06 4.342-9.759 1.096-10.762-4.796-1.479-4.215 8.217-4.493 10.166-.406 2.799-1.257 9.138-4.2 10.14-2.131.724-3.508-.97-5.306-1.551-1.765-.572-3.722-.167-5.367-.692-5.696-1.829-1.274-5.718 1.805-7.707 4.859-3.141 5.845-5.941 8.575-10.356 1.184-1.916 5.185-7.054 7.094-8.183 3.753-2.228 8.399 1.518 12.096 1.98.438.055 1.209.096 2.125.159v.008a113.57 113.57 0 0 1 4.446 5.488c-2.411 1.082-8.057 1.773-9.983 2.497 3.064 2.052 6.602 6.125 10.134 2.983.977-.867 1.105-1.877 1.805-2.839 12.678 17.641 20.552 38.972 21.69 62.07-2.06-1.4-3.102-4.303-6.706-3.532 1.703 1.504 2.992 4.192 4.805 5.408.803.541 1.415.733 1.996.781.032 1.058.048 2.115.048 3.173zm-77.079-106.579c-.564 1.154-2.116.954-2.64 1.893-.677 1.193-1.329 6.65-1.257 7.707.175 2.855 1.806 4.208.525 7.142-.406.923-1.663 1.313-2.036 2.346-.35.963.031 2.785-.057 3.81-3.07.851-.492 2.673-1.701 4.343-1.097 1.519-5.583 1.965-7.31 2.219-2.568 5.965-11.269 5.194-14.395 11.398-1.194 2.378.341 8.224-2.634 9.353-3.085 1.178-4.167-2.919-5.122-4.756-1.28-2.458-3.451-4.947-3.236-7.882.174-2.434 2.123-4.955 2.926-7.27.78-2.251 2.792-5.575 2.879-7.89.105-2.608-1.876-6.084-2.425-8.709-1.584-7.516-12.773-4.915-10.404-14.364 2.594-.199 5.584 1.471 8.026-.096 1.375-.89 2.299-3.475 3.707-4.661 1.398-1.168 2.561-1.614 4.175-2.409 1.154-.573 2.274-1.05 3.388-1.464h.008c9.664.97 18.977 3.126 27.798 6.315.064 1.066.135 2.251-.215 2.975zm-79.146 13.012c-.422 3.054-.128 4.741-3.882 5.082.16.653-.183 1.734.048 2.411-6.53-2.593-20.998-1.417-20.56-11.119 3.929-2.61 8.025-4.972 12.264-7.087 1.893 1.654 2.044 4.628 4.112 6.967 2.513 2.824 2.259.899 5.17.12 1.145-.311 2.84-1.266 3.858.094 1.352 1.822-.803 2.077-1.01 3.532zm19.749 14.824c3.077 4.133.182 5.941-4.552 5.743.196 3.332 3.081 2.411 4.852 4.132 1.618 1.573.913 4.534 3.442 5.11 8.384 1.911-3.393-11.01 3.591-9.615 2.385.477 2.281 4.608 5.24 3.892 2.587-.626 2.65-4.201 1.622-5.975-1.236-2.133-5.4-2.296-5.994-4.694-.687-2.766 2.462-2.645.347-5.02-.861-.965-2.855-.496-3.846-1.823-1.92-2.575.19-2.61-2.921-4.216-1.723-.89-4.053.428-3.816-2.77-3.64-.671-12.297 1.418-8.765 6.672 1.285 1.909 4.398 2.119 6.191 3.442 1.775 1.31 3.294 3.357 4.609 5.122zm20.121-37.714c-3.307.962-6.719 1.686-7.538 2.378-2.299 1.94-2.379 4.605-5.171 6.363-2.64 1.662-5.719 2.775-8.407 4.43 5.154 2.943 4.406 5.798-1.106 4.685-2.043-.414-3.961-.255-6.029-.557-1.773-.255-4-2.362-5.805-2.999-2.204-.779-4.415-.93-6.713-1.248-2.657-.366-6.252-.939-5.472-3.548 14.149-6.116 29.754-9.504 46.147-9.504h.094z"/></g><path d="M478.019 245.023l-.13 5.606-.858 9.676-.998 6.247v.011c-10.108 54.024-57.506 94.903-114.46 94.903-46.887 0-87.289-27.701-105.739-67.626 14.849 6.877 31.378 10.706 48.808 10.706 8.092 0 15.999-.825 23.623-2.409a115.65 115.65 0 0 0 44.524-19.609 116.82 116.82 0 0 0 23.449-22.517 116.08 116.08 0 0 0 16.736-29.144c.748-1.876 1.453-3.785 2.082-5.716 1.704-5.021 3.049-10.205 4.046-15.509v-.011a123.58 123.58 0 0 0 .857-5.26c.055-.326.097-.662.141-.988.423-3.199.706-6.421.857-9.686 0-.086.01-.184.01-.271.076-1.768.131-3.546.131-5.336 0-1.052-.022-2.115-.055-3.167 0-.108 0-.216-.01-.325a57.09 57.09 0 0 0-.087-2.332c-.748-15.293-4.447-29.816-10.553-43.005 15.184 7.017 28.601 17.213 39.393 29.719v.01c1.54 1.79 3.026 3.612 4.446 5.488l1.953 2.636c12.68 17.646 20.554 38.97 21.693 62.073l.097 2.657a102.03 102.03 0 0 1 .044 3.179z" fill="#07111f"/><path d="M478.019 245.023l-.13 5.606c-.076.033-.153.077-.228.119-1.898 1.161-3.146 3.146-5.315 3.96-9.881 3.698-8.927-14.003-18.114-15.392-.151 3.493 2.604 5.63 4.188 8.461 1.714 3.058 3.47 6.074 5.021 9.219 1.746 3.514 2.668 5.065 6.823 4.393 1.583-.272 4.913-2.04 6.767-1.084-.281 2.103-.607 4.185-.998 6.247v.011c-3.177 3.265-8.893 6.312-10.694 7.473-2.256 1.453-5.433 2.559-5.651 5.639-.228 3.125 2.961 5.359 2.961 8.689-.022 4.814-3.254 3.241-5.172 6.572s2.569 3.264 1.637 6.964c-2.929.618-3.504 4.099-5.282 6.106-1.14 1.268-3.08 2.148-3.96 3.535-.845 1.356-.009 2.863-1.268 4.122-1.692 1.692-2.995.433-4.86.835-5.064 1.074-4.652 2.419-7.114-1.866-1.118-1.93-4.013-4.121-1.887-6.334-5.478-5.183-7.365-14.762-4.458-21.768 2.071-4.979 1.648-4.197-.944-8.926-1.616-2.951-.272-5.814-3.655-7.82-2.885-1.714-6.964-.878-10.119-.217-4.154.856-6.932 1.248-11.215-.661-3.374-1.498-4.513-4.871-6.9-7.398-.52-.553-.921-1.052-1.214-1.497a116.08 116.08 0 0 0 16.736-29.144c1.052-.064 2.093-.108 2.939-.314 2.3-.564 3.016-1.139 4.718-2.722 1.432-1.334 1.964-3.851 4.621-2.224-2.354 6.291 9.057 9.805 13.72 9.447 1.29-5.141 4.599-1.453 8.568-1.312 3.038.119 7.083-.26 10.24-.532-.955-1.93-.716-4.251-1.4-6.247-2.657-.369-4.077 1.627-6.681.694-1.746-.618-2.983-2.332-4.252-3.569-.173.521-.835 1.063-.986 1.812-5.695-.618-3.07-3.894-4.816-7.441-.976-1.984-4.664-4.012-6.736-4.739-3.319-1.183-6.551-.174-3.894 3.417 1.931 2.603 4.969 2.559 6.325 6.019-3.234-.455-2.485 4.002-4.925 4.588 1.237-3.753-1.269-10.673-5.813-11.747-3.667-.878-5.977 4.556-7.604 6.953-.608.889-1.247 1.627-1.942 2.201 1.704-5.021 3.049-10.205 4.046-15.509v-.011a123.58 123.58 0 0 0 .857-5.26c.933-.424 1.876-.749 2.624-.901 2.702-.542 4.112.315 6.541-1.215 1.063-.683 1.323-1.822 2.603-2.397 1.074-.488 2.516.25 3.742-.401 2.375-1.258 2.105-3.449 3.676-5.347 1.54-1.866 4.024-1.801 5.369-3.764-2.396-1.193-6.712-2.559-8.156-4.555.499-2.061 4.349-9.761 1.095-10.77-4.794-1.475-4.208 8.221-4.489 10.173-.402 2.799-1.259 9.133-4.198 10.142-2.137.716-3.514-.976-5.303-1.562-.814-.261-1.65-.315-2.496-.348.076-1.768.131-3.546.131-5.336 0-1.052-.022-2.115-.055-3.167 0-.108 0-.216-.01-.325 3.894-2.842 4.934-5.532 7.44-9.577 1.182-1.91 5.184-7.05 7.093-8.178 3.754-2.235 8.395 1.518 12.094 1.973.444.065 1.214.098 2.126.164v.01c1.54 1.79 3.026 3.612 4.446 5.488-2.407 1.085-8.059 1.768-9.977 2.495 3.058 2.05 6.594 6.128 10.13 2.982.975-.867 1.106-1.876 1.8-2.841 12.68 17.646 20.554 38.97 21.693 62.073-2.062-1.4-3.103-4.306-6.703-3.536 1.702 1.508 2.993 4.198 4.805 5.412.803.542 1.409.737 1.995.781a102.03 102.03 0 0 1 .044 3.179z" fill="#1b1a2f"/></g></g></svg>