<svg xmlns="http://www.w3.org/2000/svg" width="100%" height="100%" viewBox="0 0 137 260" fill-rule="evenodd" stroke-linejoin="round" stroke-miterlimit="2" xmlnsV="https://vecta.io/nano"><clipPath id="A"><path d="M0 0h136.632v259.2H0z"/></clipPath><g clip-path="url(#A)"><path d="M-12.819-9.156h162.27v277.513h-162.27z" fill="#27272f"/><g fill-rule="nonzero"><path d="M180.091 246.786l-.098 4.13-.624 7.131-.724 4.606v.006c-7.352 39.799-41.823 69.918-83.246 69.918-46.781 0-84.699-38.41-84.699-85.791 0-18.371 5.697-35.393 15.404-49.351 4.154-5.971 9.036-11.379 14.52-16.096.104-.088.208-.182.312-.264l1.556-1.301a84.28 84.28 0 0 1 6.236-4.593c2.858-1.923 5.836-3.663 8.92-5.222 1.376-.697 2.771-1.353 4.188-1.969 10.291-4.506 21.64-7.002 33.563-7.002h.068c2.87 0 5.705.146 8.499.434h.006c7.028.714 13.801 2.302 20.216 4.652 13.815 5.057 25.957 13.648 35.368 24.693v.006c1.122 1.318 2.198 2.66 3.234 4.043.485.639.959 1.289 1.423 1.946 9.221 12.996 14.947 28.712 15.774 45.728l.069 1.958a75.95 75.95 0 0 1 .035 2.338z" fill="#07111f"/><g fill="#1b1a2f"><path d="M98.701 288.342c-3.187 1.166-4.494.153-5.808 3.815-.717 2.004-1.399 3.597-3.134 4.881-2.014 1.494-3.292 3.609-4.617 5.701-.59.937-1.22 1.864-2.024 2.625-.324.311-.677.586-1.03.867-.364.294-.995.962-1.498.956.226.838.613 1.805-.006 2.566-.677.838-1.972.704-2.632 1.559-1.718 2.221 2.244 2.526 3.401 2.854 1.724.498.307 2.156-.81 2.308.035.997.481 1.987.145 2.959-.439 1.277-1.805 1.465-1.897 2.883-.087 1.395 1.943 3.838 2.725 4.893.092.118-1.117 1.125-1.279 1.201-.48.228-.891.223-1.377.018-1.145-.498-1.966-1.951-2.591-2.97-1.637-2.65-2.771-5.574-3.778-8.515-1.33-3.897-1.504-7.887-1.862-11.948a46.7 46.7 0 0 1 .225-10.442c.353-2.701 1.036-7.136-1.151-9.282-1.128-1.096-2.881-1.265-3.742-2.683-1.429-2.338-.874-5.262-3.026-7.266-1.244-1.161-1.157-2.22-.636-3.773.237-.715.48-1.424.515-2.18.023-.564-.105-1.155.034-1.706.342-1.342 1.938-1.64 2.939-2.302.706-.463.983-1.384 1.064-2.192.07-.657.18-1.91-.468-2.326a.64.64 0 0 0-.318-.1c-.735-.059-1.51.017-2.251.012-.526 0-1.128.088-1.642 0-3.72-.628-3.338-4.805-7.48-5.45-3.314-.515-5.518-1.09-8.717-2.138-1.383-.452-3.46.029-4.651-.487-1.973-.849-1.152-1.165-1.446-3.322-.515-3.698-.463-17.081-6.629-16.548-1.505.129-.475 4.195 1.034 8.427 1.858 5.197-1.145 5.899-2.128 1.757-.746-3.135-.862-5.508-2.024-8.561-1.244-3.258-.353-6.293-.458-9.662-.109-3.34.047-6.669-.04-9.985-.081-3.147-1.834-5.784-2.129-8.907-.3-3.188-.162-5.906-1.4-8.444 4.154-5.971 9.036-11.379 14.52-16.096a35.68 35.68 0 0 1 1.11 1.382 4.72 4.72 0 0 1-.798-1.646l1.556-1.301c.139.27.255.533.365.721.879 1.488 2.383 2.736 3.783 3.709 1.446 1.008 3.141 1.723 4.922 1.664-.792-.416-3.447.118-2.661-2.326 2.008 1.095 3.783.152 5.774.698 2.256.614 3.262 2.414 5.923 2.197 2.337-.188 4.199-2.057 6.542-1.114 2.39.961 1.713 2.268 4.611 1.466 2.164-.592 2.302-2.058 2.985.685.572 2.32-.723 3.252-2.216 4.465-1.712 1.388-2.881 1.729-4.893 2.209-2.638.639-2.453.715-3.899 3.094-.579.949-1.163 1.922-1.62 2.936-.567 1.259-1.128 3.117-.463 4.447.382.762 1.151 1.225 1.863 1.623.694.387 1.666.481 2.128 1.207.365.575.07 1.225-.005 1.846-.076.592-.058 1.213-.041 1.811.029.943.18 2.18 1.012 2.766 2.794 1.939 2.129-2.169 2.997-3.235 1.128-1.383 2.487.194 3.801-1.008.994-.914.549-4.278.723-5.602.312-2.425 2.487-8.742 4.772-3.832.793 1.717-.393 3.217 1.689 4.295 1.464.762 3.668-.703 5.021.428 1.597 1.33.128 2.478.139 4.008.012 1.974.058 1.488 1.498 2.865.619.598 1.192 1.342 1.689 2.039.712.99 1.637 2.696.573 3.774-.752.768-1.938.686-2.886.481-1.632-.34-2.928-1.202-4.391-1.958-1.169-.603-2.997-1.406-4.061-.17-.723.844-.451 2.134.353 2.813 1.197 1.014 2.753.58 4.159.539 1.365-.035 2.933.112 3.916 1.184.931 1.008.851 2.713-.035 3.762-.439.522-1.064.92-1.723 1.078-2.389.551-4.553-1.424-6.936-1.148-.955.105-1.244 1.019-1.342 1.857-.104.873-.451 1.324-1.371 1.166-.787-.14-1.631-.363-2.436-.164-1.11.282-1.555 1.43-1.839 2.443-.717 2.549-.775 5.034-3.291 6.704-2.378 1.576-3.367.58-3.112 4.131.087 1.225.566 6.61-2.1 3.692-1.626-1.776 1.284-5.262-2.696-5.368-2.632-.076-1.978 2.35-4.57 1.869-2.284-.433-3.968-2.613-5.675.914-.433.898-.231 2.209-.59 3.2-.399 1.089-1.591 1.898-1.44 3.187.087.71.301 1.618.735 2.198 1.602 2.139 5.333-.779 6.814-1.7.619-.387 1.55-1.364 2.343-1.083 1.319.469.005 2.25-.515 2.848-.949 1.083-2.742 2.325-1.249 3.79.474.47 1.127.709 1.775.768 1.204.106 2.407-.187 3.616-.099.682.046 1.903.281 1.382 1.183-.561.979-2.77 2.062-1.319 3.381 1.076.973 1.51-.539 2.517-.463.289.024.578.106.844.211.411.159.718.487 1.186.44.388-.041.706-.287.92-.61.249-.369.33-.837.573-1.219.358-.556.885-1.007 1.463-1.318.85-.457 1.828-.492 2.765-.509.261 0 .758-.136.96.087.237.258-.069.979-.173 1.249-.145.381-.393.72-.526 1.107-.116.345-.209.767.063 1.066.307.34.775.2 1.076-.064.231-.211.405-.487.544-.768.295-.568.347-1.341 1.082-1.505 1.075-.241 1.607 1.646 2.157 2.214.555.586 1.273 1.02 1.95 1.448 1.643 1.048 3.592 1.535 5.46 1.998 3.599.897 3.425 2.379 5.593 5.027 3.108 3.792 14.196.698 14.144 7.858-.017 2.344-2.469 4.014-2.701 6.533-.272 3.006 1.169 5.21-2.216 6.452zm81.39-41.556l-.098 4.13-.161.094c-1.384.855-2.292 2.314-3.871 2.918-7.185 2.719-6.49-10.318-13.171-11.338-.11 2.572 1.898 4.143 3.049 6.229 1.243 2.256 2.521 4.477 3.649 6.791 1.267 2.59 1.944 3.733 4.958 3.235 1.157-.194 3.581-1.5 4.923-.798-.203 1.547-.44 3.082-.724 4.606v.006c-2.314 2.402-6.467 4.647-7.78 5.502-1.637 1.073-3.945 1.893-4.107 4.161-.168 2.296 2.158 3.943 2.152 6.398-.012 3.551-2.367 2.386-3.76 4.84-1.401 2.455 1.868 2.409 1.192 5.134-2.129.451-2.546 3.017-3.847 4.5-.828.931-2.239 1.576-2.875 2.602-.62.996-.006 2.109-.92 3.035-1.232 1.248-2.181.322-3.54.615-3.685.791-3.378 1.781-5.172-1.371-.81-1.424-2.915-3.042-1.377-4.67-3.979-3.82-5.356-10.876-3.239-16.032 1.511-3.669 1.203-3.1-.682-6.581-1.18-2.174-.197-4.283-2.662-5.76-2.099-1.26-5.067-.644-7.363-.158-3.02.633-5.039.92-8.151-.486-2.452-1.107-3.286-3.593-5.016-5.45-2.781-2.988-.786-3.528.215-6.903.399-1.348.104-3.023.584-4.289.399-1.067 1.423-1.582 1.845-2.584.47-1.113.168-2.326.642-3.463.406-.955 1.418-1.295 1.707-2.485 1.799.13 2.308-1.763 3.766-2.425 1.22-.551 3.291-.328 4.663-.662 1.677-.416 2.192-.833 3.429-2.004 1.041-.979 1.43-2.836 3.362-1.641-1.713 4.641 6.588 7.225 9.978 6.961.943-3.785 3.344-1.066 6.236-.961 2.209.082 5.149-.193 7.444-.392-.693-1.424-.52-3.135-1.018-4.606-1.932-.269-2.967 1.196-4.859.516-1.272-.463-2.169-1.723-3.088-2.631-.128.381-.608.785-.718 1.336-4.142-.457-2.233-2.871-3.505-5.485-.712-1.459-3.396-2.953-4.9-3.492-2.412-.868-4.76-.129-2.829 2.519 1.4 1.916 3.61 1.881 4.594 4.436-2.349-.34-1.806 2.947-3.575 3.381.896-2.771-.926-7.864-4.229-8.66-2.667-.645-4.35 3.357-5.536 5.127-1.845 2.748-4.211 3.533-7.334 2.426-1.997-.709-5.757-1.688-4.027-4.711 1.532-2.69 7.37-.528 10.054-.598.387-3.704-6.792-2.244-2.695-6.247 1.035-1.013 2.672-2.332 3.909-3.287 1.018-.779 2.939-1.682 4.16-1.934 1.96-.404 2.99.229 4.755-.902.774-.498.96-1.336 1.891-1.764.781-.357 1.833.182 2.724-.293 1.724-.926 1.534-2.543 2.673-3.938 1.122-1.376 2.927-1.33 3.904-2.771-1.741-.879-4.882-1.887-5.928-3.363.359-1.518 3.158-7.19.798-7.929-3.489-1.09-3.066 6.053-3.268 7.489-.296 2.063-.915 6.733-3.055 7.471-1.55.533-2.551-.715-3.859-1.143-1.283-.421-2.707-.123-3.903-.509-4.143-1.348-.927-4.213 1.312-5.679 3.535-2.314 4.251-4.376 6.237-7.629.861-1.412 3.771-5.197 5.159-6.029 2.73-1.641 6.109 1.119 8.798 1.459.318.041.879.07 1.545.117v.006c1.122 1.318 2.198 2.66 3.234 4.043-1.754.797-5.86 1.307-7.26 1.84 2.227 1.512 4.801 4.512 7.37 2.197.711-.638.804-1.382 1.313-2.091 9.221 12.996 14.947 28.712 15.774 45.728-1.498-1.031-2.255-3.17-4.877-2.602 1.239 1.108 2.176 3.089 3.495 3.985.584.398 1.029.54 1.451.575a75.95 75.95 0 0 1 .035 2.338zm-56.058-78.52c-.411.85-1.539.703-1.921 1.394-.492.879-.966 4.899-.914 5.679.128 2.103 1.314 3.1.382 5.261-.295.68-1.21.967-1.481 1.729-.255.709.023 2.051-.041 2.807-2.233.627-.358 1.969-1.238 3.199-.797 1.119-4.06 1.448-5.316 1.635-1.867 4.395-8.196 3.826-10.47 8.397-.868 1.752.249 6.059-1.915 6.891-2.244.867-3.03-2.151-3.725-3.504-.931-1.811-2.511-3.645-2.354-5.807.127-1.793 1.544-3.651 2.128-5.356.567-1.658 2.031-4.107 2.094-5.813.076-1.921-1.364-4.482-1.763-6.416-1.152-5.537-9.291-3.621-7.567-10.583 1.886-.146 4.061 1.084 5.837-.07 1-.656 1.672-2.561 2.696-3.434 1.017-.861 1.862-1.189 3.036-1.775a25.25 25.25 0 0 1 2.465-1.078h.006c7.028.714 13.801 2.302 20.216 4.652.047.785.099 1.659-.155 2.192zm-57.564 9.586c-.306 2.25-.092 3.493-2.822 3.744.115.481-.133 1.278.034 1.776-4.749-1.91-15.271-1.043-14.953-8.191 2.858-1.923 5.836-3.663 8.92-5.222 1.376 1.219 1.487 3.41 2.99 5.133 1.828 2.081 1.644.663 3.76.089.834-.229 2.066-.933 2.806.069.984 1.342-.584 1.53-.735 2.602zm14.364 10.921c2.238 3.045.133 4.377-3.31 4.232.142 2.454 2.24 1.776 3.528 3.043 1.177 1.159.664 3.341 2.504 3.765 6.097 1.408-2.468-8.111 2.612-7.083 1.734.351 1.658 3.395 3.811 2.867 1.881-.461 1.927-3.095 1.179-4.402-.899-1.571-3.927-1.691-4.36-3.458-.499-2.038 1.791-1.949.253-3.698-.626-.712-2.076-.366-2.797-1.343-1.396-1.897.138-1.923-2.124-3.107-1.254-.655-2.948.316-2.776-2.04-2.647-.495-8.943 1.044-6.374 4.915.934 1.407 3.198 1.561 4.502 2.536 1.291.965 2.396 2.473 3.352 3.773zm14.634-27.785c-2.405.709-4.887 1.242-5.482 1.752-1.673 1.43-1.73 3.393-3.761 4.688-1.921 1.225-4.159 2.045-6.114 3.264 3.748 2.168 3.204 4.272-.805 3.451-1.486-.305-2.88-.188-4.384-.41-1.29-.188-2.91-1.74-4.223-2.209-1.602-.574-3.211-.686-4.882-.92-1.932-.27-4.547-.692-3.98-2.614 10.291-4.506 21.64-7.002 33.563-7.002h.068z"/></g><path d="M180.09 246.79l-.095 4.13-.623 7.128-.726 4.603v.008c-7.351 39.801-41.824 69.918-83.246 69.918-34.102 0-63.486-20.408-76.904-49.822 10.799 5.066 22.821 7.887 35.498 7.887a83.39 83.39 0 0 0 17.181-1.774c11.895-2.476 22.884-7.487 32.381-14.447 6.422-4.698 12.165-10.284 17.055-16.589 5.025-6.472 9.143-13.695 12.173-21.471.544-1.382 1.056-2.788 1.514-4.211 1.238-3.7 2.217-7.519 2.942-11.426v-.008c.237-1.287.442-2.581.623-3.876.04-.24.071-.488.103-.727a85.37 85.37 0 0 0 .623-7.136c0-.064.008-.136.008-.2a93.09 93.09 0 0 0 .095-3.931c0-.775-.016-1.558-.04-2.333 0-.08 0-.16-.007-.24a41.85 41.85 0 0 0-.064-1.718c-.544-11.267-3.234-21.966-7.675-31.683 11.044 5.17 20.802 12.681 28.65 21.895v.007a82.84 82.84 0 0 1 3.234 4.044l1.421 1.942c9.222 13 14.948 28.71 15.776 45.73l.071 1.958c.024.783.032 1.558.032 2.342z" fill="#07111f"/><path d="M180.09 246.79l-.095 4.13c-.054.024-.11.057-.165.088-1.381.855-2.288 2.317-3.866 2.917-7.186 2.725-6.492-10.316-13.174-11.339-.11 2.573 1.894 4.147 3.046 6.233 1.246 2.253 2.524 4.475 3.652 6.792 1.269 2.589 1.94 3.732 4.962 3.236 1.152-.2 3.573-1.502 4.922-.799-.205 1.55-.442 3.084-.726 4.603v.008c-2.311 2.405-6.468 4.65-7.778 5.505-1.641 1.071-3.951 1.886-4.11 4.155-.166 2.302 2.154 3.948 2.154 6.401-.016 3.547-2.367 2.389-3.762 4.842s1.868 2.405 1.191 5.131c-2.13.455-2.549 3.02-3.842 4.498-.829.934-2.24 1.583-2.88 2.605-.615.999-.007 2.109-.922 3.036-1.231 1.247-2.178.32-3.535.616-3.683.791-3.383 1.781-5.174-1.375-.813-1.422-2.919-3.037-1.373-4.666-3.983-3.819-5.356-10.876-3.242-16.038 1.507-3.668 1.199-3.091-.686-6.576-1.175-2.174-.198-4.283-2.659-5.761-2.098-1.263-5.064-.647-7.359-.16-3.021.631-5.042.919-8.157-.487-2.453-1.103-3.282-3.589-5.018-5.45a8.41 8.41 0 0 1-.883-1.103c5.025-6.472 9.143-13.695 12.173-21.471.764-.047 1.522-.08 2.137-.232 1.673-.415 2.194-.838 3.431-2.005 1.041-.983 1.429-2.837 3.361-1.638-1.712 4.634 6.587 7.224 9.979 6.96.938-3.788 3.344-1.071 6.231-.967 2.209.088 5.152-.192 7.447-.392-.694-1.422-.521-3.132-1.018-4.602-1.932-.272-2.965 1.198-4.859.511-1.269-.455-2.17-1.718-3.092-2.629-.126.384-.608.783-.718 1.335-4.141-.456-2.233-2.869-3.502-5.482-.71-1.462-3.392-2.956-4.899-3.492-2.414-.871-4.764-.128-2.832 2.517 1.404 1.918 3.613 1.886 4.6 4.435-2.352-.336-1.807 2.948-3.582 3.38.899-2.765-.923-7.863-4.228-8.654-2.667-.647-4.347 3.356-5.53 5.122-.442.655-.907 1.199-1.412 1.622 1.238-3.7 2.217-7.519 2.942-11.426v-.008c.237-1.287.442-2.581.623-3.876.679-.312 1.365-.551 1.909-.663 1.965-.4 2.99.232 4.757-.895.773-.503.962-1.342 1.893-1.766.781-.36 1.83.184 2.721-.296 1.728-.927 1.532-2.541 2.674-3.939 1.12-1.374 2.927-1.327 3.905-2.773-1.743-.879-4.882-1.886-5.932-3.356.364-1.518 3.163-7.191.797-7.935-3.487-1.086-3.061 6.057-3.265 7.496-.293 2.061-.916 6.728-3.054 7.471-1.554.527-2.555-.719-3.857-1.151-.591-.192-1.199-.231-1.814-.256a93.09 93.09 0 0 0 .095-3.931c0-.775-.016-1.558-.04-2.333 0-.08 0-.16-.007-.24 2.832-2.093 3.588-4.075 5.411-7.056.859-1.406 3.77-5.194 5.158-6.025 2.73-1.646 6.106 1.119 8.796 1.454.323.048.883.073 1.546.121v.007a82.84 82.84 0 0 1 3.234 4.044c-1.751.799-5.861 1.302-7.256 1.837 2.223 1.511 4.796 4.515 7.367 2.198.71-.639.805-1.382 1.31-2.093 9.222 13 14.948 28.71 15.776 45.73-1.499-1.031-2.256-3.172-4.875-2.605 1.238 1.111 2.177 3.093 3.495 3.988.584.399 1.025.543 1.451.575.024.783.032 1.558.032 2.342z" fill="#1b1a2f"/></g></g></svg>