<?xml version="1.0" encoding="UTF-8" standalone="no"?><!DOCTYPE svg PUBLIC "-//W3C//DTD SVG 1.1//EN" "http://www.w3.org/Graphics/SVG/1.1/DTD/svg11.dtd"><svg width="100%" height="100%" viewBox="0 0 461 260" version="1.1" xmlns="http://www.w3.org/2000/svg" xmlns:xlink="http://www.w3.org/1999/xlink" xml:space="preserve" xmlns:serif="http://www.serif.com/" style="fill-rule:evenodd;clip-rule:evenodd;stroke-linejoin:round;stroke-miterlimit:2;"><rect id="Artboard2" x="0" y="0" width="460.8" height="259.2" style="fill:none;"/><clipPath id="_clip1"><rect x="0" y="0" width="460.8" height="259.2"/></clipPath><g clip-path="url(#_clip1)"><rect x="0" y="0" width="460.8" height="259.2" style="fill:#27272f;"/><g><path d="M478.021,245.017c-0,1.878 -0.048,3.754 -0.135,5.606c-0.152,3.263 -0.438,6.491 -0.859,9.68c-0.279,2.1 -0.604,4.183 -0.995,6.252l-0,0.008c-10.109,54.021 -57.505,94.903 -114.46,94.903c-64.321,-0 -116.458,-52.136 -116.458,-116.449c0,-24.935 7.835,-48.04 21.181,-66.986c5.711,-8.105 12.423,-15.446 19.964,-21.849c0.143,-0.119 0.286,-0.246 0.429,-0.357c0.708,-0.596 1.416,-1.185 2.14,-1.766c2.76,-2.203 5.615,-4.287 8.574,-6.235c3.929,-2.61 8.025,-4.972 12.264,-7.087c1.893,-0.947 3.81,-1.838 5.759,-2.673c14.149,-6.116 29.754,-9.504 46.147,-9.504l0.094,-0c3.946,-0 7.844,0.198 11.685,0.588l0.008,0c9.664,0.97 18.977,3.126 27.798,6.315c18.994,6.865 35.688,18.525 48.629,33.517l-0,0.008c1.542,1.79 3.022,3.611 4.446,5.488c0.667,0.867 1.319,1.75 1.956,2.641c12.678,17.641 20.552,38.972 21.69,62.07c0.04,0.883 0.079,1.765 0.095,2.657c0.032,1.058 0.048,2.115 0.048,3.173Z" style="fill:#07111f;fill-rule:nonzero;"/><path d="M366.113,301.424c-4.382,1.582 -6.18,0.207 -7.986,5.178c-0.985,2.72 -1.924,4.883 -4.31,6.626c-2.768,2.027 -4.525,4.898 -6.347,7.738c-0.811,1.272 -1.678,2.529 -2.784,3.563c-0.445,0.422 -0.931,0.796 -1.416,1.177c-0.501,0.398 -1.367,1.305 -2.059,1.297c0.31,1.138 0.843,2.45 -0.009,3.483c-0.93,1.138 -2.711,0.955 -3.619,2.117c-2.362,3.013 3.086,3.428 4.677,3.872c2.37,0.677 0.422,2.928 -1.114,3.134c0.049,1.353 0.661,2.697 0.2,4.017c-0.605,1.733 -2.482,1.988 -2.609,3.913c-0.12,1.894 2.672,5.209 3.746,6.641c0.127,0.16 -1.535,1.527 -1.757,1.63c-0.661,0.31 -1.225,0.304 -1.894,0.025c-1.575,-0.677 -2.704,-2.649 -3.563,-4.032c-2.251,-3.596 -3.81,-7.565 -5.194,-11.557c-1.829,-5.29 -2.068,-10.705 -2.561,-16.218c-0.429,-4.875 -0.334,-9.314 0.31,-14.173c0.486,-3.668 1.424,-9.687 -1.583,-12.599c-1.55,-1.488 -3.96,-1.717 -5.145,-3.643c-1.965,-3.173 -1.201,-7.142 -4.16,-9.862c-1.71,-1.575 -1.59,-3.014 -0.875,-5.122c0.326,-0.97 0.66,-1.932 0.708,-2.959c0.032,-0.764 -0.143,-1.567 0.048,-2.315c0.469,-1.821 2.664,-2.226 4.04,-3.125c0.97,-0.629 1.352,-1.878 1.463,-2.975c0.096,-0.891 0.247,-2.593 -0.644,-3.157c-0.127,-0.08 -0.27,-0.128 -0.437,-0.136c-1.01,-0.08 -2.076,0.023 -3.094,0.017c-0.724,-0 -1.551,0.119 -2.259,-0c-5.114,-0.853 -4.589,-6.522 -10.284,-7.398c-4.557,-0.7 -7.588,-1.479 -11.986,-2.903c-1.901,-0.613 -4.757,0.04 -6.395,-0.66c-2.712,-1.152 -1.583,-1.582 -1.988,-4.509c-0.708,-5.019 -0.637,-23.185 -9.115,-22.462c-2.068,0.175 -0.652,5.695 1.423,11.438c2.554,7.055 -1.574,8.008 -2.926,2.386c-1.026,-4.256 -1.186,-7.477 -2.784,-11.621c-1.71,-4.421 -0.485,-8.542 -0.629,-13.115c-0.15,-4.534 0.064,-9.051 -0.055,-13.553c-0.111,-4.272 -2.522,-7.851 -2.927,-12.089c-0.413,-4.327 -0.223,-8.017 -1.925,-11.462c5.711,-8.105 12.423,-15.446 19.964,-21.849c0.525,0.613 1.034,1.241 1.527,1.877c-0.501,-0.643 -0.883,-1.431 -1.098,-2.234c0.708,-0.596 1.416,-1.185 2.14,-1.766c0.191,0.365 0.35,0.724 0.501,0.978c1.209,2.02 3.277,3.714 5.202,5.035c1.988,1.368 4.318,2.338 6.768,2.258c-1.09,-0.564 -4.74,0.16 -3.659,-3.157c2.76,1.487 5.202,0.207 7.938,0.947c3.102,0.834 4.486,3.277 8.145,2.982c3.213,-0.255 5.774,-2.791 8.995,-1.511c3.285,1.304 2.355,3.078 6.339,1.989c2.975,-0.804 3.166,-2.792 4.104,0.93c0.788,3.15 -0.994,4.414 -3.046,6.061c-2.354,1.884 -3.961,2.346 -6.729,2.998c-3.627,0.867 -3.372,0.971 -5.36,4.2c-0.796,1.288 -1.599,2.609 -2.228,3.984c-0.779,1.711 -1.55,4.232 -0.636,6.037c0.526,1.034 1.583,1.663 2.561,2.204c0.955,0.524 2.291,0.651 2.927,1.638c0.501,0.78 0.096,1.662 -0.007,2.506c-0.104,0.802 -0.08,1.646 -0.057,2.457c0.041,1.281 0.247,2.959 1.392,3.754c3.842,2.633 2.927,-2.943 4.12,-4.39c1.551,-1.878 3.421,0.263 5.226,-1.368c1.368,-1.241 0.756,-5.807 0.994,-7.604c0.43,-3.293 3.42,-11.867 6.562,-5.202c1.09,2.331 -0.541,4.367 2.322,5.83c2.013,1.034 5.044,-0.954 6.905,0.581c2.194,1.805 0.174,3.364 0.19,5.441c0.016,2.679 0.08,2.02 2.06,3.888c0.851,0.812 1.639,1.822 2.322,2.768c0.979,1.344 2.252,3.659 0.789,5.122c-1.035,1.043 -2.665,0.931 -3.97,0.653c-2.242,-0.461 -4.025,-1.631 -6.037,-2.657c-1.606,-0.819 -4.12,-1.909 -5.583,-0.23c-0.994,1.145 -0.621,2.895 0.485,3.817c1.646,1.376 3.786,0.787 5.719,0.732c1.877,-0.048 4.032,0.151 5.384,1.607c1.281,1.368 1.17,3.682 -0.048,5.106c-0.604,0.708 -1.463,1.249 -2.37,1.464c-3.284,0.747 -6.259,-1.933 -9.536,-1.559c-1.312,0.143 -1.71,1.383 -1.845,2.521c-0.143,1.185 -0.62,1.798 -1.885,1.583c-1.082,-0.191 -2.243,-0.493 -3.349,-0.223c-1.527,0.382 -2.139,1.941 -2.529,3.316c-0.986,3.46 -1.066,6.833 -4.526,9.1c-3.269,2.139 -4.629,0.787 -4.279,5.607c0.12,1.663 0.78,8.972 -2.887,5.012c-2.235,-2.412 1.766,-7.144 -3.706,-7.287c-3.619,-0.103 -2.721,3.19 -6.284,2.537c-3.141,-0.588 -5.456,-3.547 -7.802,1.24c-0.597,1.219 -0.318,2.999 -0.812,4.344c-0.548,1.478 -2.187,2.576 -1.98,4.326c0.119,0.963 0.414,2.196 1.01,2.984c2.203,2.902 7.333,-1.059 9.37,-2.308c0.851,-0.525 2.131,-1.852 3.221,-1.471c1.813,0.637 0.008,3.055 -0.708,3.866c-1.305,1.47 -3.77,3.157 -1.718,5.146c0.652,0.636 1.551,0.962 2.442,1.041c1.654,0.144 3.308,-0.254 4.971,-0.134c0.938,0.063 2.617,0.381 1.901,1.605c-0.771,1.329 -3.81,2.8 -1.814,4.59c1.48,1.32 2.076,-0.732 3.46,-0.629c0.398,0.033 0.796,0.144 1.162,0.287c0.564,0.216 0.986,0.66 1.63,0.597c0.532,-0.056 0.97,-0.39 1.264,-0.827c0.342,-0.501 0.454,-1.137 0.788,-1.656c0.493,-0.754 1.217,-1.367 2.012,-1.788c1.169,-0.62 2.513,-0.668 3.802,-0.692c0.358,0 1.042,-0.183 1.32,0.118c0.326,0.35 -0.095,1.329 -0.238,1.695c-0.199,0.518 -0.541,0.979 -0.724,1.503c-0.159,0.47 -0.287,1.042 0.087,1.448c0.422,0.461 1.066,0.27 1.48,-0.088c0.318,-0.285 0.557,-0.66 0.747,-1.041c0.406,-0.772 0.477,-1.822 1.488,-2.044c1.479,-0.327 2.21,2.234 2.967,3.006c0.763,0.796 1.749,1.384 2.68,1.965c2.259,1.423 4.939,2.083 7.508,2.712c4.948,1.217 4.709,3.229 7.69,6.824c4.273,5.146 19.519,0.947 19.448,10.666c-0.024,3.181 -3.396,5.449 -3.714,8.867c-0.375,4.081 1.607,7.072 -3.047,8.758Z" style="fill:#1b1a2f;fill-rule:nonzero;"/><path d="M478.021,245.017c-0,1.878 -0.048,3.754 -0.135,5.606c-0.071,0.04 -0.152,0.08 -0.222,0.128c-1.902,1.161 -3.151,3.142 -5.323,3.961c-9.878,3.69 -8.923,-14.006 -18.109,-15.39c-0.151,3.491 2.609,5.624 4.192,8.455c1.71,3.062 3.466,6.077 5.017,9.217c1.743,3.516 2.674,5.067 6.817,4.392c1.591,-0.263 4.924,-2.037 6.769,-1.083c-0.279,2.1 -0.604,4.183 -0.995,6.252l-0,0.008c-3.181,3.261 -8.892,6.307 -10.697,7.469c-2.251,1.456 -5.425,2.569 -5.647,5.647c-0.231,3.117 2.967,5.353 2.959,8.685c-0.017,4.82 -3.254,3.237 -5.17,6.57c-1.926,3.332 2.569,3.269 1.638,6.967c-2.927,0.612 -3.499,4.096 -5.289,6.109c-1.138,1.264 -3.078,2.138 -3.953,3.531c-0.852,1.352 -0.008,2.863 -1.265,4.12c-1.693,1.694 -2.999,0.437 -4.867,0.835c-5.066,1.073 -4.645,2.418 -7.111,-1.861c-1.113,-1.933 -4.008,-4.129 -1.893,-6.34c-5.472,-5.185 -7.364,-14.761 -4.453,-21.761c2.076,-4.979 1.653,-4.206 -0.939,-8.931c-1.622,-2.951 -0.271,-5.814 -3.659,-7.819c-2.886,-1.71 -6.968,-0.874 -10.124,-0.214c-4.153,0.859 -6.928,1.249 -11.208,-0.66c-3.372,-1.503 -4.518,-4.877 -6.896,-7.398c-3.825,-4.055 -1.082,-4.788 0.295,-9.369c0.549,-1.83 0.143,-4.104 0.803,-5.822c0.549,-1.448 1.957,-2.148 2.537,-3.508c0.645,-1.511 0.231,-3.157 0.883,-4.701c0.557,-1.295 1.949,-1.756 2.347,-3.372c2.473,0.176 3.173,-2.393 5.178,-3.292c1.677,-0.748 4.525,-0.446 6.41,-0.899c2.306,-0.564 3.014,-1.129 4.716,-2.72c1.432,-1.328 1.965,-3.85 4.622,-2.227c-2.355,6.299 9.058,9.807 13.719,9.449c1.297,-5.138 4.598,-1.448 8.575,-1.305c3.037,0.112 7.079,-0.262 10.236,-0.533c-0.954,-1.932 -0.715,-4.255 -1.4,-6.251c-2.657,-0.366 -4.08,1.623 -6.681,0.7c-1.75,-0.628 -2.982,-2.338 -4.246,-3.571c-0.176,0.517 -0.836,1.066 -0.987,1.813c-5.696,-0.62 -3.07,-3.897 -4.82,-7.445c-0.979,-1.98 -4.669,-4.008 -6.737,-4.739c-3.316,-1.178 -6.546,-0.176 -3.89,3.419c1.926,2.601 4.964,2.553 6.316,6.021c-3.229,-0.461 -2.483,4.001 -4.915,4.589c1.233,-3.762 -1.273,-10.673 -5.815,-11.755c-3.667,-0.875 -5.981,4.557 -7.611,6.96c-2.538,3.73 -5.79,4.795 -10.085,3.292c-2.744,-0.962 -7.914,-2.29 -5.536,-6.394c2.107,-3.651 10.133,-0.717 13.823,-0.812c0.533,-5.027 -9.338,-3.046 -3.705,-8.478c1.423,-1.376 3.674,-3.166 5.375,-4.462c1.4,-1.058 4.041,-2.283 5.719,-2.625c2.696,-0.549 4.112,0.31 6.538,-1.225c1.065,-0.676 1.321,-1.813 2.601,-2.394c1.073,-0.485 2.52,0.246 3.746,-0.398c2.37,-1.256 2.108,-3.452 3.675,-5.345c1.542,-1.869 4.024,-1.805 5.367,-3.761c-2.393,-1.194 -6.712,-2.562 -8.15,-4.566c0.492,-2.06 4.342,-9.759 1.096,-10.762c-4.796,-1.479 -4.215,8.217 -4.493,10.166c-0.406,2.799 -1.257,9.138 -4.2,10.14c-2.131,0.724 -3.508,-0.97 -5.306,-1.551c-1.765,-0.572 -3.722,-0.167 -5.367,-0.692c-5.696,-1.829 -1.274,-5.718 1.805,-7.707c4.859,-3.141 5.845,-5.941 8.575,-10.356c1.184,-1.916 5.185,-7.054 7.094,-8.183c3.753,-2.228 8.399,1.518 12.096,1.98c0.438,0.055 1.209,0.096 2.125,0.159l-0,0.008c1.542,1.79 3.022,3.611 4.446,5.488c-2.411,1.082 -8.057,1.773 -9.983,2.497c3.064,2.052 6.602,6.125 10.134,2.983c0.977,-0.867 1.105,-1.877 1.805,-2.839c12.678,17.641 20.552,38.972 21.69,62.07c-2.06,-1.4 -3.102,-4.303 -6.706,-3.532c1.703,1.504 2.992,4.192 4.805,5.408c0.803,0.541 1.415,0.733 1.996,0.781c0.032,1.058 0.048,2.115 0.048,3.173Z" style="fill:#1b1a2f;fill-rule:nonzero;"/><path d="M400.942,138.438c-0.564,1.154 -2.116,0.954 -2.64,1.893c-0.677,1.193 -1.329,6.65 -1.257,7.707c0.175,2.855 1.806,4.208 0.525,7.142c-0.406,0.923 -1.663,1.313 -2.036,2.346c-0.35,0.963 0.031,2.785 -0.057,3.81c-3.07,0.851 -0.492,2.673 -1.701,4.343c-1.097,1.519 -5.583,1.965 -7.31,2.219c-2.568,5.965 -11.269,5.194 -14.395,11.398c-1.194,2.378 0.341,8.224 -2.634,9.353c-3.085,1.178 -4.167,-2.919 -5.122,-4.756c-1.28,-2.458 -3.451,-4.947 -3.236,-7.882c0.174,-2.434 2.123,-4.955 2.926,-7.27c0.78,-2.251 2.792,-5.575 2.879,-7.89c0.105,-2.608 -1.876,-6.084 -2.425,-8.709c-1.584,-7.516 -12.773,-4.915 -10.404,-14.364c2.594,-0.199 5.584,1.471 8.026,-0.096c1.375,-0.89 2.299,-3.475 3.707,-4.661c1.398,-1.168 2.561,-1.614 4.175,-2.409c1.154,-0.573 2.274,-1.05 3.388,-1.464l0.008,0c9.664,0.97 18.977,3.126 27.798,6.315c0.064,1.066 0.135,2.251 -0.215,2.975Z" style="fill:#1b1a2f;fill-rule:nonzero;"/><path d="M321.796,151.45c-0.422,3.054 -0.128,4.741 -3.882,5.082c0.16,0.653 -0.183,1.734 0.048,2.411c-6.53,-2.593 -20.998,-1.417 -20.56,-11.119c3.929,-2.61 8.025,-4.972 12.264,-7.087c1.893,1.654 2.044,4.628 4.112,6.967c2.513,2.824 2.259,0.899 5.17,0.12c1.145,-0.311 2.84,-1.266 3.858,0.094c1.352,1.822 -0.803,2.077 -1.01,3.532Z" style="fill:#1b1a2f;fill-rule:nonzero;"/><path d="M341.545,166.274c3.077,4.133 0.182,5.941 -4.552,5.743c0.196,3.332 3.081,2.411 4.852,4.132c1.618,1.573 0.913,4.534 3.442,5.11c8.384,1.911 -3.393,-11.01 3.591,-9.615c2.385,0.477 2.281,4.608 5.24,3.892c2.587,-0.626 2.65,-4.201 1.622,-5.975c-1.236,-2.133 -5.4,-2.296 -5.994,-4.694c-0.687,-2.766 2.462,-2.645 0.347,-5.02c-0.861,-0.965 -2.855,-0.496 -3.846,-1.823c-1.92,-2.575 0.19,-2.61 -2.921,-4.216c-1.723,-0.89 -4.053,0.428 -3.816,-2.77c-3.64,-0.671 -12.297,1.418 -8.765,6.672c1.285,1.909 4.398,2.119 6.191,3.442c1.775,1.31 3.294,3.357 4.609,5.122Z" style="fill:#1b1a2f;fill-rule:nonzero;"/><path d="M361.666,128.56c-3.307,0.962 -6.719,1.686 -7.538,2.378c-2.299,1.94 -2.379,4.605 -5.171,6.363c-2.64,1.662 -5.719,2.775 -8.407,4.43c5.154,2.943 4.406,5.798 -1.106,4.685c-2.043,-0.414 -3.961,-0.255 -6.029,-0.557c-1.773,-0.255 -4,-2.362 -5.805,-2.999c-2.204,-0.779 -4.415,-0.93 -6.713,-1.248c-2.657,-0.366 -6.252,-0.939 -5.472,-3.548c14.149,-6.116 29.754,-9.504 46.147,-9.504l0.094,-0Z" style="fill:#1b1a2f;fill-rule:nonzero;"/><path d="M478.019,245.023c0,1.876 -0.044,3.752 -0.13,5.606c-0.153,3.254 -0.445,6.486 -0.858,9.676c-0.281,2.103 -0.607,4.185 -0.998,6.247l0,0.011c-10.108,54.024 -57.506,94.903 -114.46,94.903c-46.887,-0 -87.289,-27.701 -105.739,-67.626c14.849,6.877 31.378,10.706 48.808,10.706c8.092,0 15.999,-0.825 23.623,-2.409c16.356,-3.361 31.465,-10.162 44.524,-19.609c8.828,-6.377 16.725,-13.959 23.449,-22.517c6.909,-8.785 12.571,-18.59 16.736,-29.144c0.748,-1.876 1.453,-3.785 2.082,-5.716c1.704,-5.021 3.049,-10.205 4.046,-15.509l0,-0.011c0.326,-1.747 0.607,-3.503 0.857,-5.26c0.055,-0.326 0.097,-0.662 0.141,-0.988c0.423,-3.199 0.706,-6.421 0.857,-9.686c-0,-0.086 0.01,-0.184 0.01,-0.271c0.076,-1.768 0.131,-3.546 0.131,-5.336c-0,-1.052 -0.022,-2.115 -0.055,-3.167c-0,-0.108 -0,-0.216 -0.01,-0.325c-0.012,-0.792 -0.044,-1.562 -0.087,-2.332c-0.748,-15.293 -4.447,-29.816 -10.553,-43.005c15.184,7.017 28.601,17.213 39.393,29.719l-0,0.01c1.54,1.79 3.026,3.612 4.446,5.488c0.662,0.868 1.325,1.746 1.953,2.636c12.68,17.646 20.554,38.97 21.693,62.073c0.042,0.878 0.075,1.768 0.097,2.657c0.033,1.062 0.044,2.115 0.044,3.179Z" style="fill:#07111f;fill-rule:nonzero;"/><path d="M478.019,245.023c0,1.876 -0.044,3.752 -0.13,5.606c-0.076,0.033 -0.153,0.077 -0.228,0.119c-1.898,1.161 -3.146,3.146 -5.315,3.96c-9.881,3.698 -8.927,-14.003 -18.114,-15.392c-0.151,3.493 2.604,5.63 4.188,8.461c1.714,3.058 3.47,6.074 5.021,9.219c1.746,3.514 2.668,5.065 6.823,4.393c1.583,-0.272 4.913,-2.04 6.767,-1.084c-0.281,2.103 -0.607,4.185 -0.998,6.247l0,0.011c-3.177,3.265 -8.893,6.312 -10.694,7.473c-2.256,1.453 -5.433,2.559 -5.651,5.639c-0.228,3.125 2.961,5.359 2.961,8.689c-0.022,4.814 -3.254,3.241 -5.172,6.572c-1.92,3.33 2.569,3.264 1.637,6.964c-2.929,0.618 -3.504,4.099 -5.282,6.106c-1.14,1.268 -3.08,2.148 -3.96,3.535c-0.845,1.356 -0.009,2.863 -1.268,4.122c-1.692,1.692 -2.995,0.433 -4.86,0.835c-5.064,1.074 -4.652,2.419 -7.114,-1.866c-1.118,-1.93 -4.013,-4.121 -1.887,-6.334c-5.478,-5.183 -7.365,-14.762 -4.458,-21.768c2.071,-4.979 1.648,-4.197 -0.944,-8.926c-1.616,-2.951 -0.272,-5.814 -3.655,-7.82c-2.885,-1.714 -6.964,-0.878 -10.119,-0.217c-4.154,0.856 -6.932,1.248 -11.215,-0.661c-3.374,-1.498 -4.513,-4.871 -6.9,-7.398c-0.52,-0.553 -0.921,-1.052 -1.214,-1.497c6.909,-8.785 12.571,-18.59 16.736,-29.144c1.052,-0.064 2.093,-0.108 2.939,-0.314c2.3,-0.564 3.016,-1.139 4.718,-2.722c1.432,-1.334 1.964,-3.851 4.621,-2.224c-2.354,6.291 9.057,9.805 13.72,9.447c1.29,-5.141 4.599,-1.453 8.568,-1.312c3.038,0.119 7.083,-0.26 10.24,-0.532c-0.955,-1.93 -0.716,-4.251 -1.4,-6.247c-2.657,-0.369 -4.077,1.627 -6.681,0.694c-1.746,-0.618 -2.983,-2.332 -4.252,-3.569c-0.173,0.521 -0.835,1.063 -0.986,1.812c-5.695,-0.618 -3.07,-3.894 -4.816,-7.441c-0.976,-1.984 -4.664,-4.012 -6.736,-4.739c-3.319,-1.183 -6.551,-0.174 -3.894,3.417c1.931,2.603 4.969,2.559 6.325,6.019c-3.234,-0.455 -2.485,4.002 -4.925,4.588c1.237,-3.753 -1.269,-10.673 -5.813,-11.747c-3.667,-0.878 -5.977,4.556 -7.604,6.953c-0.608,0.889 -1.247,1.627 -1.942,2.201c1.704,-5.021 3.049,-10.205 4.046,-15.509l0,-0.011c0.326,-1.747 0.607,-3.503 0.857,-5.26c0.933,-0.424 1.876,-0.749 2.624,-0.901c2.702,-0.542 4.112,0.315 6.541,-1.215c1.063,-0.683 1.323,-1.822 2.603,-2.397c1.074,-0.488 2.516,0.25 3.742,-0.401c2.375,-1.258 2.105,-3.449 3.676,-5.347c1.54,-1.866 4.024,-1.801 5.369,-3.764c-2.396,-1.193 -6.712,-2.559 -8.156,-4.555c0.499,-2.061 4.349,-9.761 1.095,-10.77c-4.794,-1.475 -4.208,8.221 -4.489,10.173c-0.402,2.799 -1.259,9.133 -4.198,10.142c-2.137,0.716 -3.514,-0.976 -5.303,-1.562c-0.814,-0.261 -1.65,-0.315 -2.496,-0.348c0.076,-1.768 0.131,-3.546 0.131,-5.336c-0,-1.052 -0.022,-2.115 -0.055,-3.167c-0,-0.108 -0,-0.216 -0.01,-0.325c3.894,-2.842 4.934,-5.532 7.44,-9.577c1.182,-1.91 5.184,-7.05 7.093,-8.178c3.754,-2.235 8.395,1.518 12.094,1.973c0.444,0.065 1.214,0.098 2.126,0.164l-0,0.01c1.54,1.79 3.026,3.612 4.446,5.488c-2.407,1.085 -8.059,1.768 -9.977,2.495c3.058,2.05 6.594,6.128 10.13,2.982c0.975,-0.867 1.106,-1.876 1.8,-2.841c12.68,17.646 20.554,38.97 21.693,62.073c-2.062,-1.4 -3.103,-4.306 -6.703,-3.536c1.702,1.508 2.993,4.198 4.805,5.412c0.803,0.542 1.409,0.737 1.995,0.781c0.033,1.062 0.044,2.115 0.044,3.179Z" style="fill:#1b1a2f;fill-rule:nonzero;"/></g></g></svg>