<svg xmlns="http://www.w3.org/2000/svg" width="100%" height="100%" viewBox="0 0 1920 1080" fill-rule="evenodd" stroke-linejoin="round" stroke-miterlimit="2" xmlnsV="https://vecta.io/nano"><path d="M0 0h1920v1080H0z" fill="#c8f5ff"/><g fill-rule="nonzero"><path d="M1991.752 1020.9c0 7.823-.2 15.64-.56 23.36-.635 13.593-1.824 27.042-3.58 40.332-1.161 8.749-2.516 17.43-4.146 26.047v.034c-42.122 225.088-239.602 395.429-476.916 395.429-268.003 0-485.237-217.231-485.237-485.202 0-103.896 32.642-200.168 88.252-279.106a488.78 488.78 0 0 1 83.182-91.038c.595-.496 1.192-1.026 1.788-1.489l8.917-7.357c11.499-9.179 23.395-17.865 35.724-25.981 16.371-10.872 33.437-20.714 51.102-29.529 7.887-3.943 15.875-7.655 23.996-11.135 58.955-25.485 123.974-39.602 192.277-39.602h.395c16.44 0 32.681.827 48.687 2.453h.034c40.263 4.041 79.069 13.021 115.821 26.312 79.143 28.601 148.702 77.184 202.621 139.653v.033c6.428 7.456 12.592 15.045 18.528 22.865 2.779 3.615 5.495 7.293 8.149 11.005 52.827 73.504 85.633 162.385 90.374 258.625l.395 11.071c.137 4.409.2 8.812.2 13.221z" fill="#1dbecc"/><path d="M1525.472 1255.927c-18.259 6.593-25.75.863-33.275 21.576-4.106 11.334-8.017 20.346-17.956 27.609-11.536 8.446-18.857 20.409-26.448 32.24-3.38 5.301-6.993 10.539-11.598 14.845-1.856 1.761-3.879 3.317-5.901 4.906-2.087 1.658-5.697 5.438-8.582 5.404 1.293 4.741 3.513 10.207-.035 14.513-3.877 4.741-11.298 3.98-15.078 8.818-9.842 12.558 12.858 14.285 19.487 16.137 9.875 2.819 1.757 12.197-4.641 13.055.201 5.638 2.752 11.237.83 16.738-2.517 7.222-10.34 8.286-10.87 16.303-.499 7.891 11.135 21.707 15.61 27.671.529.669-6.397 6.365-7.324 6.793-2.752 1.292-5.104 1.264-7.889.103-6.562-2.819-11.266-11.037-14.846-16.801-9.378-14.982-15.874-31.52-21.641-48.155-7.624-22.039-8.617-44.604-10.671-67.575-1.79-20.312-1.392-38.805 1.293-59.054 2.021-15.28 5.932-40.361-6.596-52.495-6.461-6.199-16.503-7.154-21.44-15.177-8.186-13.221-5.005-29.759-17.333-41.093-7.126-6.565-6.627-12.558-3.646-21.341 1.359-4.043 2.752-8.052 2.95-12.329.133-3.185-.598-6.53.199-9.647 1.955-7.588 11.099-9.275 16.834-13.021 4.042-2.619 5.634-7.823 6.097-12.398.399-3.711 1.028-10.802-2.683-13.152a3.7 3.7 0 0 0-1.823-.566c-4.208-.332-8.65.097-12.891.069-3.016 0-6.464.498-9.411 0-21.31-3.551-19.121-27.174-42.852-30.822-18.987-2.916-31.614-6.164-49.941-12.094-7.922-2.556-19.821.166-26.645-2.751-11.301-4.803-6.596-6.593-8.284-18.791-2.951-20.912-2.653-96.604-37.979-93.588-8.618.729-2.719 23.726 5.929 47.657 10.641 29.393-6.56 33.367-12.194 9.939-4.275-17.73-4.939-31.151-11.598-48.418-7.125-18.424-2.021-35.591-2.62-54.646-.628-18.891.265-37.714-.231-56.471-.464-17.799-10.506-32.712-12.197-50.374-1.721-18.028-.927-33.404-8.019-47.755a488.78 488.78 0 0 1 83.182-91.038 206.15 206.15 0 0 1 6.361 7.821c-2.087-2.681-3.678-5.964-4.574-9.31l8.917-7.357c.794 1.522 1.459 3.015 2.087 4.076 5.038 8.416 13.653 15.476 21.674 20.977 8.284 5.7 17.994 9.744 28.202 9.411-4.542-2.353-19.752.664-15.246-13.156 11.501 6.196 21.674.863 33.076 3.946 12.924 3.477 18.691 13.653 33.936 12.426 13.389-1.061 24.057-11.631 37.48-6.295 13.688 5.435 9.811 12.825 26.411 8.286 12.398-3.348 13.192-11.634 17.102 3.877 3.281 13.123-4.142 18.39-12.693 25.253-9.808 7.851-16.503 9.775-28.035 12.492-15.113 3.612-14.052 4.044-22.336 17.499-3.315 5.368-6.662 10.87-9.282 16.602-3.246 7.126-6.461 17.632-2.65 25.154 2.189 4.308 6.593 6.927 10.671 9.18 3.977 2.187 9.544 2.716 12.194 6.827 2.088 3.249.399 6.927-.031 10.44-.432 3.345-.331 6.858-.234 10.239.168 5.336 1.028 12.328 5.8 15.643 16.007 10.97 12.196-12.262 17.167-18.293 6.461-7.823 14.25 1.095 21.773-5.702 5.7-5.168 3.149-24.192 4.142-31.682 1.789-13.718 14.25-49.444 27.34-21.673 4.541 9.711-2.253 18.194 9.676 24.291 8.385 4.309 21.014-3.974 28.768 2.421 9.144 7.523.729 14.017.794 22.669.066 11.166.331 8.417 8.584 16.204 3.544 3.381 6.827 7.588 9.676 11.532 4.078 5.601 9.379 15.246 3.284 21.343-4.311 4.343-11.103 3.879-16.538 2.719-9.345-1.922-16.77-6.794-25.154-11.071-6.695-3.412-17.168-7.953-23.265-.96-4.142 4.773-2.586 12.064 2.021 15.908 6.859 5.733 15.774 3.28 23.828 3.047 7.821-.198 16.801.631 22.437 6.696 5.334 5.702 4.873 15.345-.201 21.277-2.517 2.95-6.097 5.203-9.875 6.099-13.686 3.114-26.082-8.054-39.733-6.496-5.47.595-7.127 5.766-7.69 10.506-.596 4.936-2.584 7.489-7.854 6.593-4.508-.794-9.347-2.054-13.955-.927-6.362 1.591-8.913 8.085-10.537 13.818-4.109 14.417-4.442 28.468-18.856 37.913-13.622 8.914-19.289 3.281-17.829 23.364.498 6.929 3.247 37.385-12.031 20.882-9.312-10.047 7.357-29.764-15.442-30.36-15.081-.43-11.336 13.29-26.182 10.57-13.088-2.451-22.733-14.78-32.51 5.168-2.485 5.078-1.324 12.495-3.381 18.099-2.286 6.159-9.113 10.733-8.251 18.024.496 4.014 1.723 9.149 4.208 12.432 9.179 12.094 30.555-4.409 39.04-9.613 3.546-2.19 8.881-7.72 13.421-6.13 7.556 2.653.033 12.729-2.948 16.109-5.438 6.124-15.71 13.152-7.158 21.438 2.718 2.653 6.461 4.009 10.172 4.34 6.894.6 13.787-1.058 20.714-.56 3.91.263 10.903 1.59 7.92 6.691-3.213 5.535-15.873 11.666-7.556 19.122 6.164 5.501 8.65-3.048 14.416-2.619 1.657.137 3.314.6 4.839 1.195 2.353.898 4.109 2.751 6.792 2.488 2.22-.234 4.042-1.624 5.27-3.448 1.425-2.087 1.889-4.735 3.281-6.896 2.054-3.145 5.071-5.696 8.385-7.451 4.87-2.585 10.47-2.785 15.839-2.882 1.494 0 4.343-.766 5.501.492 1.359 1.458-.397 5.535-.993 7.062-.83 2.156-2.253 4.077-3.014 6.262-.664 1.956-1.196 4.34.362 6.033 1.756 1.921 4.442 1.127 6.165-.366 1.324-1.189 2.319-2.751 3.114-4.34 1.693-3.214 1.988-7.588 6.199-8.515 6.163-1.361 9.211 9.31 12.362 12.523 3.179 3.317 7.29 5.77 11.168 8.189 9.412 5.93 20.579 8.681 31.284 11.3 20.614 5.072 19.619 13.455 32.043 28.432 17.801 21.444 81.327 3.946 81.03 44.444-.097 13.255-14.147 22.702-15.474 36.947-1.561 17.001 6.696 29.467-12.695 36.489zm466.28-235.027c0 7.823-.2 15.64-.56 23.36-.297.166-.635.332-.926.532-7.926 4.838-13.129 13.089-22.176 16.503-41.161 15.377-37.181-58.356-75.455-64.126-.629 14.548 10.871 23.434 17.464 35.231 7.125 12.758 14.445 25.321 20.907 38.405 7.262 14.651 11.139 21.112 28.403 18.299 6.628-1.098 20.518-8.486 28.203-4.512-1.161 8.749-2.516 17.43-4.146 26.047v.034c-13.255 13.587-37.05 26.282-44.569 31.12-9.378 6.067-22.605 10.705-23.531 23.531-.961 12.987 12.363 22.302 12.329 36.186-.069 20.083-13.558 13.49-21.541 27.374-8.023 13.884 10.705 13.621 6.828 29.032-12.197 2.55-14.582 17.064-22.039 25.453-4.741 5.267-12.826 8.909-16.469 14.713-3.551 5.633-.034 11.929-5.272 17.167-7.057 7.057-12.495 1.818-20.278 3.477-21.112 4.472-19.357 10.076-29.633-7.754-4.638-8.052-16.698-17.201-7.886-26.413-22.799-21.604-30.685-61.507-18.556-90.671 8.652-20.746 6.891-17.527-3.911-37.215-6.759-12.295-1.127-24.223-15.245-32.578-12.026-7.125-29.032-3.643-42.185-.892-17.304 3.58-28.867 5.204-46.697-2.751-14.05-6.262-18.825-20.318-28.735-30.822-15.937-16.898-4.506-19.952 1.229-39.04 2.287-7.623.595-17.098 3.345-24.258 2.287-6.033 8.154-8.949 10.573-14.616 2.688-6.296.961-13.152 3.677-19.586 2.322-5.398 8.12-7.32 9.778-14.051 10.305.731 13.221-9.973 21.576-13.718 6.988-3.116 18.854-1.856 26.711-3.744 9.607-2.353 12.558-4.707 19.648-11.333 5.964-5.534 8.189-16.04 19.26-9.279-9.813 26.246 37.742 40.86 57.161 39.368 5.404-21.406 19.157-6.031 35.729-5.435 12.655.466 29.496-1.094 42.648-2.22-3.974-8.054-2.979-17.73-5.833-26.047-11.071-1.525-17.001 6.761-27.837 2.915-7.291-2.617-12.426-9.743-17.693-14.88-.732 2.156-3.483 4.442-4.112 7.556-23.731-2.584-12.792-16.237-20.083-31.019-4.077-8.251-19.454-16.702-28.072-19.75-13.816-4.908-27.271-.73-16.206 14.249 8.023 10.837 20.684 10.638 26.316 25.087-13.455-1.922-10.345 16.669-20.478 19.121 5.135-15.674-5.307-44.473-24.229-48.979-15.28-3.648-24.921 18.988-31.714 28.998-10.573 15.542-24.126 19.981-42.019 13.719-11.437-4.01-32.978-9.544-23.068-26.643 8.778-15.213 42.219-2.986 57.596-3.381 2.219-20.945-38.908-12.693-15.44-35.328 5.93-5.733 15.308-13.19 22.399-18.591 5.833-4.409 16.835-9.511 23.829-10.936 11.231-2.286 17.132 1.292 27.243-5.104 4.437-2.816 5.501-7.556 10.836-9.975 4.472-2.021 10.499 1.026 15.606-1.657 9.876-5.236 8.783-14.383 15.314-22.272 6.428-7.787 16.766-7.522 22.365-15.674-9.973-4.972-27.969-10.672-33.962-19.021 2.053-8.586 18.093-40.664 4.569-44.842-19.986-6.164-17.561 34.234-18.722 42.355-1.693 11.666-5.238 38.078-17.498 42.253-8.881 3.016-14.616-4.042-22.107-6.464-7.354-2.383-15.508-.695-22.365-2.882-23.731-7.622-5.307-23.828 7.52-32.114 20.249-13.09 24.355-24.754 35.729-43.149 4.935-7.986 21.604-29.393 29.559-34.1 15.64-9.279 34.997 6.329 50.402 8.253 1.824.229 5.038.397 8.852.662v.033c6.428 7.456 12.592 15.045 18.528 22.865-10.047 4.508-33.573 7.39-41.596 10.406 12.764 8.551 27.506 25.52 42.225 12.428 4.072-3.612 4.603-7.82 7.52-11.83 52.827 73.504 85.633 162.385 90.374 258.625-8.583-5.833-12.924-17.93-27.94-14.717 7.097 6.265 12.466 17.467 20.02 22.534 3.345 2.253 5.896 3.054 8.315 3.254.137 4.409.2 8.812.2 13.221zm-321.157-444.078c-2.35 4.806-8.818 3.977-11.002 7.887-2.819 4.972-5.535 27.707-5.238 32.114.732 11.896 7.525 17.532 2.19 29.759-1.693 3.844-6.931 5.469-8.486 9.776-1.458 4.009.132 11.6-.234 15.875-12.792 3.546-2.053 11.137-7.091 18.094-4.569 6.331-23.263 8.186-30.456 9.246-10.699 24.856-46.954 21.641-59.981 47.489-4.975 9.911 1.424 34.267-10.974 38.974-12.855 4.906-17.361-12.163-21.341-19.817-5.335-10.241-14.382-20.613-13.484-32.842.726-10.142 8.846-20.646 12.192-30.291 3.248-9.378 11.631-23.229 11.997-32.875.435-10.868-7.817-25.352-10.104-36.289-6.599-31.316-53.224-20.48-43.351-59.851 10.808-.829 23.268 6.13 33.441-.397 5.73-3.712 9.578-14.482 15.445-19.421 5.827-4.87 10.671-6.725 17.395-10.04 4.809-2.388 9.475-4.374 14.119-6.098h.034c40.263 4.041 79.069 13.021 115.821 26.312.269 4.44.566 9.378-.892 12.395zm-329.778 54.218c-1.757 12.725-.532 19.751-16.173 21.175.664 2.719-.761 7.225.199 10.043-27.208-10.804-87.49-5.901-85.667-46.329 16.371-10.872 33.437-20.714 51.102-29.529 7.887 6.894 8.518 19.286 17.132 29.031 10.473 11.766 9.414 3.745 21.542.499 4.773-1.293 11.832-5.272 16.073.395 5.636 7.589-3.345 8.65-4.208 14.716zm82.291 61.764c12.818 17.221.757 24.755-18.967 23.932.815 13.882 12.837 10.045 20.213 17.214 6.741 6.554 3.804 18.894 14.345 21.292 34.93 7.962-14.138-45.874 14.961-40.062 9.937 1.989 9.502 19.201 21.833 16.219 10.779-2.61 11.042-17.508 6.759-24.896-5.152-8.888-22.499-9.568-24.977-19.559-2.86-11.528 10.259-11.022 1.448-20.917-3.589-4.023-11.897-2.065-16.025-7.596-7.999-10.728.79-10.874-12.169-17.567-7.183-3.707-16.888 1.783-15.901-11.54-15.169-2.799-51.236 5.907-36.52 27.799 5.351 7.955 18.324 8.827 25.794 14.341 7.399 5.457 13.728 13.988 19.207 21.34zm83.837-157.142c-13.781 4.009-27.997 7.026-31.411 9.909-9.579 8.085-9.911 19.187-21.544 26.511-11.002 6.927-23.828 11.564-35.029 18.458 21.476 12.262 18.36 24.161-4.607 19.52-8.515-1.724-16.504-1.062-25.12-2.319-7.388-1.061-16.669-9.842-24.189-12.494-9.182-3.248-18.395-3.877-27.972-5.203-11.068-1.525-26.047-3.911-22.799-14.78 58.955-25.485 123.974-39.602 192.277-39.602h.395z" fill="#cedd49"/><path d="M1991.747 1020.923a502.4 502.4 0 0 1-.543 23.36c-.635 13.558-1.853 27.025-3.574 40.315-1.172 8.766-2.528 17.441-4.157 26.03v.046c-42.116 225.1-239.608 395.429-476.916 395.429-195.364 0-363.705-115.421-440.576-281.775 61.868 28.655 130.74 44.609 203.366 44.609 33.713 0 66.658-3.437 98.428-10.036 68.15-14.004 131.103-42.345 185.514-81.705a486.64 486.64 0 0 0 97.705-93.822c28.787-36.604 52.381-77.456 69.736-121.431 3.117-7.818 6.05-15.77 8.675-23.816 7.097-20.924 12.701-42.524 16.858-64.624v-.044c1.355-7.278 2.528-14.597 3.568-21.919.229-1.357.406-2.759.589-4.113 1.761-13.332 2.939-26.754 3.568-40.358 0-.36.046-.768.046-1.13.315-7.366.543-14.778.543-22.234 0-4.383-.091-8.812-.229-13.196 0-.452 0-.902-.04-1.355-.051-3.299-.183-6.508-.366-9.716-3.117-63.721-18.528-124.235-43.969-179.189 63.269 29.24 119.172 71.72 164.136 123.828v.044c6.416 7.456 12.609 15.049 18.528 22.867l8.137 10.983c52.832 73.526 85.639 162.375 90.385 258.636l.406 11.071c.137 4.426.183 8.812.183 13.244z" fill="#00b6cb"/><path d="M1991.747 1020.923a502.4 502.4 0 0 1-.543 23.36c-.315.137-.635.32-.949.498-7.909 4.838-13.107 13.107-22.147 16.498-41.167 15.411-37.193-58.345-75.472-64.132-.629 14.553 10.848 23.457 17.447 35.254 7.142 12.741 14.462 25.31 20.924 38.411 7.274 14.645 11.117 21.107 28.426 18.305 6.599-1.132 20.472-8.498 28.198-4.518-1.172 8.766-2.528 17.441-4.157 26.03v.046c-13.238 13.604-37.055 26.299-44.558 31.137-9.401 6.056-22.639 10.665-23.548 23.497-.949 13.021 12.34 22.33 12.34 36.203-.091 20.06-13.558 13.507-21.553 27.386-8 13.873 10.705 13.598 6.822 29.015-12.203 2.573-14.599 17.081-22.01 25.441-4.746 5.284-12.832 8.949-16.498 14.731-3.523 5.65-.04 11.929-5.284 17.172-7.051 7.051-12.478 1.807-20.249 3.483-21.101 4.472-19.385 10.076-29.644-7.777-4.655-8.04-16.721-17.172-7.863-26.391-22.822-21.598-30.685-61.507-18.573-90.7 8.629-20.746 6.868-17.487-3.934-37.193-6.731-12.295-1.132-24.223-15.228-32.584-12.02-7.142-29.015-3.66-42.162-.904-17.31 3.568-28.884 5.198-46.731-2.756-14.056-6.239-18.802-20.295-28.746-30.822-2.167-2.305-3.837-4.386-5.061-6.239 28.787-36.604 52.381-77.456 69.736-121.431 4.38-.268 8.721-.45 12.243-1.31 9.584-2.348 12.569-4.745 19.66-11.342 5.964-5.558 8.183-16.042 19.254-9.263-9.807 26.21 37.736 40.854 57.167 39.362 5.375-21.422 19.162-6.057 35.7-5.468 12.655.496 29.513-1.085 42.665-2.216-3.98-8.043-2.985-17.715-5.833-26.03-11.071-1.538-16.989 6.779-27.837 2.891-7.274-2.575-12.432-9.716-17.716-14.869-.721 2.17-3.483 4.429-4.112 7.549-23.726-2.578-12.792-16.226-20.066-31.004-4.066-8.271-19.431-16.72-28.066-19.747-13.827-4.928-27.294-.724-16.223 14.235 8.046 10.846 20.701 10.664 26.35 25.08-13.473-1.897-10.35 16.675-20.518 19.117 5.152-15.636-5.29-44.469-24.223-48.944-15.28-3.661-24.904 18.982-31.68 28.969-2.533 3.705-5.198 6.779-8.092 9.173 7.097-20.924 12.701-42.524 16.858-64.624v-.044c1.355-7.278 2.528-14.597 3.568-21.919 3.889-1.764 7.817-3.118 10.934-3.751 11.26-2.26 17.132 1.311 27.254-5.062 4.432-2.847 5.513-7.591 10.848-9.988 4.472-2.035 10.482 1.04 15.588-1.673 9.899-5.241 8.772-14.37 15.32-22.278 6.416-7.774 16.766-7.503 22.37-15.683-9.984-4.971-27.969-10.664-33.985-18.979 2.082-8.588 18.122-40.673 4.563-44.877-19.974-6.146-17.533 34.256-18.705 42.39-1.675 11.66-5.244 38.051-17.493 42.255-8.904 2.983-14.639-4.067-22.096-6.508-3.391-1.086-6.874-1.311-10.396-1.448.315-7.366.543-14.778.543-22.234 0-4.383-.091-8.812-.229-13.196 0-.452 0-.902-.04-1.355 16.223-11.841 20.558-23.048 31-39.905 4.924-7.955 21.598-29.375 29.553-34.075 15.64-9.31 34.98 6.326 50.391 8.224 1.853.271 5.061.408 8.858.68v.044c6.416 7.456 12.609 15.049 18.528 22.867-10.03 4.519-33.579 7.366-41.573 10.393 12.741 8.542 27.477 25.533 42.208 12.428 4.066-3.614 4.609-7.818 7.503-11.838 52.832 73.526 85.639 162.375 90.385 258.636-8.589-5.833-12.929-17.943-27.929-14.735 7.091 6.283 12.472 17.491 20.02 22.552 3.345 2.259 5.873 3.071 8.315 3.254.137 4.426.183 8.812.183 13.244z" fill="#b6d54e"/></g></svg>