<?xml version="1.0" encoding="UTF-8" standalone="no"?><!DOCTYPE svg PUBLIC "-//W3C//DTD SVG 1.1//EN" "http://www.w3.org/Graphics/SVG/1.1/DTD/svg11.dtd"><svg width="100%" height="100%" viewBox="0 0 100 50" version="1.1" xmlns="http://www.w3.org/2000/svg" xmlns:xlink="http://www.w3.org/1999/xlink" xml:space="preserve" xmlnsSerif="http://www.serif.com/" style="fill-rule:evenodd;clip-rule:evenodd;stroke-linejoin:round;stroke-miterlimit:2;"><rect id="Artboard2" x="0" y="0" width="100" height="50" style="fill:none;"/><g><path d="M87.86,25c-0,-10.352 -8.405,-18.757 -18.757,-18.757l-38.206,0c-10.352,0 -18.757,8.405 -18.757,18.757c0,10.352 8.405,18.757 18.757,18.757l38.206,-0c10.352,-0 18.757,-8.405 18.757,-18.757Z" style="fill:#444;"/><ellipse cx="31.273" cy="25" rx="17.5" ry="17.331" style="fill:#07111f;"/></g><clipPath id="_clip1"><rect id="moon.svg" x="19.965" y="13.692" width="22.616" height="22.616"/></clipPath><g clip-path="url(#_clip1)"><path id="Moon" d="M42.383,27.283c-0.151,-0.073 -0.332,-0.03 -0.434,0.103c-0.453,0.588 -1.041,1.131 -1.75,1.612c-4.105,2.785 -9.733,1.741 -12.543,-2.331c-2.762,-4 -1.764,-9.532 2.225,-12.33c0.134,-0.094 0.186,-0.268 0.125,-0.421c-0.061,-0.152 -0.221,-0.241 -0.381,-0.218c-1.642,0.246 -3.253,0.88 -4.66,1.834c-2.537,1.72 -4.243,4.318 -4.805,7.315c-0.559,2.983 0.085,6.005 1.814,8.509c2.221,3.218 5.825,4.95 9.49,4.95c2.232,-0 4.487,-0.643 6.464,-1.985c2.326,-1.577 3.975,-3.933 4.644,-6.635c0.04,-0.162 -0.039,-0.33 -0.189,-0.403Zm-4.639,5.799c-4.902,3.325 -11.212,2.26 -14.568,-2.6c-1.62,-2.348 -2.224,-5.181 -1.7,-7.978c0.527,-2.81 1.956,-4.631 3.933,-6.151c0.874,-0.671 1.365,-0.975 2.406,-1.286c-3.319,3.206 -4.055,8.514 -1.362,12.416c3.03,4.389 10.325,6.121 14.46,1.831c0.304,-0.315 -0.021,0 0,-0c0.045,0.219 -1.414,2.577 -3.169,3.768Z" style="fill:#e5e5e5;fill-rule:nonzero;"/></g></svg>