<svg xmlns="http://www.w3.org/2000/svg" width="100%" height="100%" viewBox="0 0 30 30" fill-rule="evenodd" stroke-linejoin="round" stroke-miterlimit="2" xmlnsV="https://vecta.io/nano"><g transform="matrix(.016915 -.000176 .000181 .017442 -3.13292 -3.26315)" fill-rule="nonzero"><path d="M1909.18 1060.69c0 13.68-.35 27.35-.98 40.85-1.11 23.77-3.19 47.29-6.26 70.53-2.03 15.3-4.4 30.48-7.25 45.55v.06c-73.66 393.62-419 691.5-834 691.5-468.667 0-848.551-379.88-848.551-848.49 0-181.686 57.083-350.04 154.33-488.083 41.61-59.056 90.521-112.547 145.464-159.201 1.041-.868 2.084-1.794 3.126-2.604l15.593-12.866c20.108-16.052 40.912-31.241 62.471-45.434 28.629-19.013 58.473-36.223 89.363-51.639 13.792-6.896 27.761-13.386 41.962-19.472 103.097-44.566 216.798-69.254 336.242-69.254h.69c28.75 0 57.15 1.446 85.14 4.29h.06c70.41 7.066 138.27 22.771 202.54 46.013 138.4 50.015 260.04 134.975 354.33 244.216v.058c11.24 13.039 22.02 26.309 32.4 39.985 4.86 6.321 9.61 12.753 14.25 19.244 92.38 128.539 149.75 283.969 158.04 452.267l.69 19.36a742.71 742.71 0 0 1 .35 23.12z" fill="#1dbecc"/><path d="M1093.78 1471.69c-31.93 11.53-45.03 1.51-58.19 37.73-7.18 19.82-14.02 35.58-31.4 48.28-20.173 14.77-32.976 35.69-46.251 56.38-5.911 9.27-12.229 18.43-20.282 25.96-3.245 3.08-6.784 5.8-10.319 8.58-3.65 2.9-9.963 9.51-15.007 9.45 2.261 8.29 6.144 17.85-.061 25.38-6.78 8.29-19.757 6.96-26.367 15.42-17.211 21.96 22.485 24.98 34.077 28.22 17.268 4.93 3.072 21.33-8.116 22.83.352 9.86 4.812 19.65 1.451 29.27-4.402 12.63-18.082 14.49-19.008 28.51-.872 13.8 19.472 37.96 27.298 48.39.925 1.17-11.187 11.13-12.808 11.88-4.812 2.26-8.925 2.21-13.796.18-11.476-4.93-19.702-19.3-25.962-29.38-16.4-26.2-27.76-55.12-37.844-84.21-13.332-38.54-15.068-78-18.661-118.17-3.13-35.52-2.435-67.86 2.261-103.27 3.535-26.72 10.373-70.58-11.535-91.8-11.298-10.84-28.859-12.51-37.492-26.54-14.316-23.12-8.752-52.04-30.31-71.86-12.461-11.48-11.589-21.96-6.376-37.32 2.377-7.07 4.812-14.08 5.159-21.56.232-5.57-1.045-11.42.348-16.87 3.419-13.27 19.41-16.22 29.439-22.77 7.069-4.58 9.852-13.68 10.662-21.68.698-6.49 1.798-18.89-4.692-23-.93-.58-1.969-.93-3.188-.99-7.358-.58-15.126.17-22.543.12-5.275 0-11.303.87-16.458 0-37.265-6.21-33.437-47.52-74.936-53.9-33.204-5.1-55.285-10.78-87.333-21.15-13.854-4.47-34.661.29-46.595-4.81-19.762-8.4-11.535-11.53-14.486-32.86-5.16-36.57-4.64-168.935-66.415-163.66-15.07 1.274-4.755 41.491 10.368 83.34 18.608 51.4-11.472 58.35-21.324 17.38-7.475-31.005-8.637-54.475-20.282-84.67-12.46-32.218-3.535-62.24-4.581-95.561-1.099-33.036.464-65.952-.404-98.752-.811-31.126-18.373-57.204-21.329-88.09-3.009-31.527-1.621-58.415-14.023-83.51 41.61-59.056 90.521-112.547 145.464-159.201 3.824 4.465 7.533 9.042 11.124 13.676-3.649-4.688-6.432-10.43-7.998-16.28l15.593-12.866c1.389 2.662 2.551 5.272 3.65 7.127 8.81 14.718 23.875 27.063 37.902 36.683 14.486 9.967 31.466 17.04 49.317 16.458-7.942-4.114-34.541 1.162-26.662-23.007 20.112 10.836 37.902 1.509 57.841 6.9 22.601 6.081 32.685 23.875 59.345 21.729 23.413-1.856 42.07-20.34 65.543-11.009 23.936 9.504 17.156 22.428 46.186 14.49 21.68-5.854 23.069-20.345 29.907 6.78 5.738 22.949-7.243 32.16-22.197 44.161-17.152 13.73-28.86 17.094-49.026 21.845-26.429 6.316-24.573 7.072-39.059 30.601-5.797 9.388-11.65 19.009-16.231 29.033-5.676 12.461-11.299 30.833-4.634 43.987 3.828 7.533 11.53 12.114 18.661 16.054 6.954 3.824 16.69 4.75 21.324 11.938 3.651 5.681.698 12.113-.054 18.257-.756 5.85-.579 11.993-.409 17.905.294 9.331 1.798 21.559 10.142 27.355 27.992 19.183 21.327-21.443 30.021-31.989 11.299-13.68 24.92 1.914 38.076-9.971 9.967-9.038 5.507-42.306 7.243-55.403 3.129-23.99 24.92-86.465 47.811-37.901 7.941 16.982-3.94 31.816 16.921 42.478 14.664 7.536 36.748-6.95 50.308 4.233 15.991 13.155 1.274 24.512 1.389 39.642.116 19.526.578 14.719 15.011 28.336 6.197 5.912 11.939 13.27 16.92 20.166 7.132 9.794 16.402 26.661 5.742 37.323-7.539 7.595-19.416 6.784-28.921 4.754-16.342-3.361-29.327-11.881-43.987-19.36-11.708-5.966-30.022-13.907-40.684-1.678-7.243 8.346-4.523 21.096 3.534 27.818 11.994 10.026 27.584 5.735 41.669 5.329 13.676-.347 29.381 1.104 39.236 11.709 9.327 9.971 8.521 26.834-.351 37.207-4.402 5.159-10.662 9.098-17.268 10.665-23.933 5.445-45.611-14.084-69.483-11.36-9.566 1.041-12.464 10.083-13.448 18.372-1.042 8.632-4.519 13.097-13.734 11.53-7.883-1.389-16.346-3.592-24.403-1.621-11.125 2.783-15.586 14.139-18.426 24.164-7.185 25.211-7.768 49.783-32.974 66.3-23.821 15.589-33.731 5.738-31.179 40.857.871 12.117 5.679 65.377-21.039 36.517-16.284-17.57 12.865-52.049-27.004-53.091-26.372-.752-19.823 23.241-45.786 18.484-22.887-4.287-39.754-25.846-56.852 9.037-4.345 8.88-2.316 21.85-5.912 31.65-3.997 10.77-15.937 18.77-14.428 31.52.868 7.02 3.013 16 7.359 21.74 16.052 21.15 53.433-7.71 68.271-16.81 6.201-3.83 15.531-13.5 23.469-10.72 13.213 4.64.058 22.26-5.155 28.17-9.509 10.71-27.472 23-12.518 37.49 4.753 4.64 11.298 7.01 17.789 7.59 12.055 1.05 24.11-1.85 36.223-.98 6.838.46 19.066 2.78 13.85 11.7-5.619 9.68-27.757 20.4-13.214 33.44 10.779 9.62 15.127-5.33 25.21-4.58 2.898.24 5.796 1.05 8.463 2.09 4.114 1.57 7.185 4.81 11.878 4.35 3.882-.41 7.069-2.84 9.215-6.03 2.492-3.65 3.303-8.28 5.738-12.06 3.592-5.5 8.867-9.96 14.663-13.03 8.517-4.52 18.31-4.87 27.699-5.04 2.613 0 7.595-1.34 9.62.86 2.377 2.55-.694 9.68-1.736 12.35-1.451 3.77-3.94 7.13-5.271 10.95-1.162 3.42-2.092 7.59.633 10.55 3.071 3.36 7.768 1.97 10.781-.64 2.315-2.08 4.056-4.81 5.445-7.59 2.96-5.62 3.477-13.27 10.84-14.89 10.777-2.38 16.107 16.28 21.617 21.9 5.56 5.8 12.749 10.09 19.529 14.32 16.459 10.37 35.988 15.18 54.708 19.76 36.049 8.87 34.309 23.53 56.034 49.72 31.13 37.5 142.22 6.9 141.7 77.72-.17 23.18-24.74 39.7-27.06 64.61-2.73 29.73 11.71 51.53-22.2 63.81zm815.4-411c0 13.68-.35 27.35-.98 40.85-.52.29-1.11.58-1.62.93-13.86 8.46-22.96 22.89-38.78 28.86-71.98 26.89-65.02-102.05-131.95-112.14-1.1 25.44 19.01 40.98 30.54 61.61 12.46 22.31 25.26 44.28 36.56 67.16 12.7 25.62 19.48 36.92 49.67 32 11.59-1.92 35.88-14.84 49.32-7.89-2.03 15.3-4.4 30.48-7.25 45.55v.06c-23.18 23.76-64.79 45.96-77.94 54.42-16.4 10.61-39.53 18.72-41.15 41.15-1.68 22.71 21.62 39 21.56 63.28-.12 35.12-23.71 23.59-37.67 47.87-14.03 24.28 18.72 23.82 11.94 50.77-21.33 4.46-25.5 29.84-38.54 44.51-8.29 9.21-22.43 15.58-28.8 25.73-6.21 9.85-.06 20.86-9.22 30.02-12.34 12.34-21.85 3.18-35.46 6.08-36.92 7.82-33.85 17.62-51.82-13.56-8.11-14.08-29.2-30.08-13.79-46.19-39.87-37.78-53.66-107.56-32.45-158.56 15.13-36.28 12.05-30.65-6.84-65.08-11.82-21.5-1.97-42.36-26.66-56.97-21.03-12.46-50.77-6.37-73.77-1.56-30.26 6.26-50.48 9.1-81.66-4.81-24.57-10.95-32.92-35.53-50.25-53.9-27.87-29.55-7.88-34.89 2.15-68.27 4-13.33 1.04-29.9 5.85-42.42 4-10.55 14.26-15.65 18.49-25.56 4.7-11.01 1.68-23 6.43-34.25 4.06-9.44 14.2-12.801 17.1-24.571 18.02 1.278 23.12-17.441 37.73-23.99 12.22-5.449 32.97-3.245 46.71-6.548 16.8-4.114 21.96-8.231 34.36-19.819 10.43-9.678 14.32-28.05 33.68-16.226-17.16 45.897 66 71.454 99.96 68.845 9.45-37.434 33.5-10.546 62.48-9.505 22.13.815 51.58-1.913 74.58-3.882-6.95-14.084-5.21-31.005-10.2-45.549-19.36-2.666-29.73 11.824-48.68 5.098-12.75-4.577-21.73-17.038-30.94-26.021-1.28 3.77-6.09 7.768-7.19 13.213-41.5-4.519-22.37-28.394-35.12-54.244-7.13-14.429-34.02-29.208-49.09-34.537-24.16-8.582-47.69-1.277-28.34 24.917 14.03 18.951 36.17 18.603 46.02 43.871-23.53-3.361-18.09 29.15-35.81 33.437 8.98-27.409-9.28-77.771-42.37-85.651-26.72-6.379-43.58 33.205-55.46 50.709-18.49 27.178-42.19 34.942-73.48 23.991-20-7.012-57.67-16.69-40.34-46.592 15.35-26.603 73.83-5.221 100.72-5.912 3.88-36.628-68.04-22.196-27-61.78 10.37-10.026 26.77-23.065 39.17-32.511 10.2-7.71 29.44-16.632 41.67-19.124 19.64-3.998 29.96 2.26 47.64-8.926 7.76-4.924 9.62-13.213 18.95-17.443 7.82-3.534 18.36 1.795 27.29-2.898 17.27-9.156 15.36-25.152 26.78-38.947 11.24-13.617 29.32-13.154 39.11-27.409-17.44-8.694-48.91-18.662-59.39-33.263 3.59-15.015 31.64-71.111 7.99-78.416-34.95-10.779-30.71 59.866-32.74 74.067-2.96 20.401-9.16 66.588-30.6 73.889-15.53 5.275-25.56-7.069-38.66-11.303-12.86-4.167-27.12-1.215-39.11-5.039-41.5-13.329-9.28-41.668 13.15-56.158 35.41-22.891 42.59-43.289 62.48-75.456 8.63-13.966 37.78-51.4 51.69-59.631 27.35-16.227 61.2 11.067 88.14 14.432 3.19.401 8.81.695 15.48 1.158v.058c11.24 13.039 22.02 26.309 32.4 39.985-17.57 7.884-58.71 12.923-72.74 18.198 22.32 14.953 48.1 44.628 73.84 21.733 7.12-6.316 8.05-13.675 13.15-20.687 92.38 128.539 149.75 283.969 158.04 452.267-15.01-10.2-22.6-31.354-48.86-25.736 12.41 10.956 21.8 30.546 35.01 39.406 5.85 3.94 10.31 5.34 14.54 5.69a742.71 742.71 0 0 1 .35 23.12zm-561.62-776.575c-4.11 8.405-15.42 6.954-19.24 13.792-4.93 8.694-9.68 48.452-9.16 56.158 1.28 20.803 13.16 30.659 3.83 52.04-2.96 6.722-12.12 9.563-14.84 17.095-2.55 7.011.23 20.286-.41 27.761-22.37 6.201-3.59 19.476-12.4 31.642-7.99 11.071-40.68 14.316-53.26 16.169-18.71 43.466-82.11 37.844-104.89 83.046-8.7 17.331 2.49 59.924-19.19 68.155-22.48 8.579-30.36-21.269-37.32-34.655-9.33-17.909-25.15-36.047-23.58-57.432 1.27-17.736 15.47-36.104 21.32-52.971 5.68-16.4 20.34-40.622 20.98-57.489.76-19.005-13.67-44.334-17.67-63.459-11.54-54.764-93.074-35.814-75.81-104.664 18.9-1.45 40.69 10.72 58.48-.694 10.02-6.491 16.75-25.326 27.01-33.962 10.19-8.516 18.66-11.761 30.42-17.557 8.41-4.176 16.57-7.649 24.69-10.663h.06c70.41 7.066 138.27 22.771 202.54 46.013.47 7.764.99 16.4-1.56 21.675zM914.771 486.936c22.415 30.115 1.323 43.29-33.168 41.85 1.425 24.276 22.448 17.566 35.348 30.103 11.789 11.461 6.653 33.04 25.086 37.234 61.083 13.923-24.724-80.222 26.163-70.058 17.377 3.478 16.616 33.577 38.18 28.363 18.85-4.565 19.31-30.616 11.82-43.536-9.01-15.543-39.345-16.732-43.679-34.204-5.001-20.159 17.94-19.275 2.532-36.578-6.276-7.035-20.804-3.612-28.024-13.283-13.988-18.761 1.382-19.016-21.281-30.72-12.561-6.483-29.532 3.118-27.807-20.181-26.526-4.894-89.599 10.329-63.864 48.613 9.358 13.911 32.044 15.436 45.106 25.079 12.939 9.543 24.006 24.461 33.588 37.318zM770.866 378.928c-3.072 22.253-.931 34.54-28.282 37.029 1.162 4.754-1.331 12.634.348 17.562-47.58-18.894-152.996-10.319-149.809-81.017 28.629-19.013 58.473-36.223 89.363-51.639 13.792 12.055 14.896 33.726 29.96 50.767 18.315 20.575 16.463 6.549 37.671.872 8.347-2.261 20.691-9.219 28.108.691 9.855 13.271-5.85 15.127-7.359 25.735zm290.514-166.791c-24.1 7.011-48.96 12.286-54.93 17.329-16.752 14.139-17.331 33.553-37.675 46.361-19.24 12.113-41.668 20.223-61.256 32.279 37.555 21.443 32.106 42.251-8.057 34.136-14.891-3.014-28.861-1.857-43.929-4.056-12.92-1.856-29.15-17.211-42.301-21.849-16.057-5.68-32.168-6.78-48.915-9.099-19.355-2.666-45.55-6.839-39.869-25.847 103.097-44.566 216.798-69.254 336.242-69.254h.69z" fill="#cedd49"/><path d="M1909.17 1060.73c0 13.67-.32 27.34-.95 40.85-1.11 23.71-3.24 47.26-6.25 70.5-2.05 15.33-4.42 30.5-7.27 45.52v.08c-73.65 393.64-419.01 691.5-834 691.5-341.64 0-636.024-201.84-770.451-492.75 108.191 50.11 228.63 78.01 355.633 78.01 58.955 0 116.568-6.01 172.124-17.55 119.176-24.49 229.264-74.05 324.414-142.88 64.33-46.47 121.87-101.71 170.86-164.07 50.34-64.01 91.6-135.45 121.95-212.351 5.45-13.671 10.58-27.578 15.17-41.648 12.41-36.59 22.21-74.364 29.48-113.01v-.077c2.37-12.727 4.42-25.526 6.24-38.33.4-2.373.71-4.824 1.03-7.193 3.08-23.315 5.14-46.785 6.24-70.575 0-.629.08-1.343.08-1.976.55-12.881.95-25.842.95-38.881 0-7.664-.16-15.409-.4-23.076 0-.791 0-1.578-.07-2.37-.09-5.769-.32-11.38-.64-16.99-5.45-111.432-32.4-217.254-76.89-313.354 110.64 51.133 208.4 125.42 287.03 216.543v.077c11.22 13.039 22.05 26.317 32.4 39.989l14.23 19.206c92.39 128.577 149.76 283.95 158.06 452.286l.71 19.36c.24 7.74.32 15.41.32 23.16z" fill="#00b6cb"/><path d="M1093.82 1471.68c-32.01 11.54-45.05 1.5-58.24 37.77-7.2 19.76-13.99 35.57-31.38 48.21-20.152 14.78-32.955 35.72-46.234 56.43-5.927 9.25-12.248 18.41-20.309 25.92-3.241 3.08-6.795 5.85-10.353 8.62-3.635 2.92-9.956 9.48-14.938 9.48 2.215 8.22 6.085 17.78-.077 25.37-6.795 8.3-19.757 6.95-26.394 15.41-17.23 21.97 22.52 24.97 34.058 28.21 17.311 4.9 3.083 21.34-8.058 22.84.313 9.8 4.82 19.6 1.42 29.24-4.425 12.64-18.097 14.46-19.046 28.53-.869 13.75 19.521 37.93 27.347 48.37.945 1.18-11.225 11.14-12.804 11.93-4.82 2.21-8.929 2.13-13.83.16-11.461-4.98-19.68-19.28-25.924-29.4-16.435-26.16-27.818-55.08-37.855-84.25-13.356-38.48-15.092-78-18.65-118.15-3.161-35.48-2.45-67.8 2.215-103.29 2.054-15.57 5.294-36.82 3.238-56.19 119.176-24.49 229.264-74.05 324.414-142.88.48 2.92.64 5.93.64 9.25-.16 23.15-24.74 39.67-27.11 64.64-2.69 29.72 11.77 51.53-22.13 63.78zm815.35-410.95c0 13.67-.32 27.34-.95 40.85-.55.24-1.11.56-1.66.87-13.83 8.46-22.92 22.92-38.73 28.85-71.99 26.95-65.04-102.03-131.98-112.15-1.1 25.45 18.97 41.02 30.51 61.65 12.49 22.28 25.29 44.26 36.59 67.17 12.72 25.61 19.44 36.91 49.71 32.01 11.54-1.98 35.8-14.86 49.31-7.9-2.05 15.33-4.42 30.5-7.27 45.52v.08c-23.15 23.79-64.8 45.99-77.92 54.45-16.44 10.59-39.59 18.65-41.18 41.09-1.66 22.77 21.58 39.05 21.58 63.31-.16 35.08-23.71 23.62-37.69 47.89-13.99 24.26 18.72 23.78 11.93 50.74-21.34 4.5-25.53 29.87-38.49 44.49-8.3 9.24-22.44 15.65-28.85 25.76-6.16 9.88-.07 20.86-9.24 30.03-12.33 12.33-21.82 3.16-35.41 6.09-36.9 7.82-33.9 17.62-51.84-13.6-8.14-14.06-29.24-30.03-13.75-46.15-39.91-37.77-53.66-107.56-32.48-158.61 15.09-36.28 12.01-30.58-6.88-65.04-11.77-21.5-1.98-42.36-26.63-56.98-21.02-12.49-50.74-6.4-73.73-1.58-30.27 6.24-50.51 9.09-81.72-4.82-24.58-10.91-32.88-35.49-50.27-53.9-3.79-4.03-6.71-7.67-8.85-10.91 50.34-64.01 91.6-135.45 121.95-212.351 7.66-.469 15.25-.787 21.41-2.291 16.76-4.106 21.98-8.297 34.38-19.835 10.43-9.72 14.31-28.054 33.67-16.199-17.15 45.835 65.99 71.443 99.97 68.834 9.4-37.461 33.51-10.592 62.43-9.562 22.13.868 51.61-1.898 74.61-3.875-6.96-14.065-5.22-30.978-10.2-45.519-19.36-2.689-29.71 11.855-48.68 5.056-12.72-4.503-21.74-16.991-30.98-26.002-1.26 3.794-6.09 7.745-7.19 13.202-41.49-4.508-22.37-28.375-35.09-54.217-7.11-14.463-33.98-29.239-49.08-34.533-24.18-8.617-47.73-1.266-28.37 24.894 14.07 18.966 36.2 18.649 46.08 43.859-23.56-3.318-18.1 29.161-35.88 33.43 9.01-27.344-9.25-77.764-42.36-85.59-26.72-6.402-43.55 33.194-55.4 50.659-4.43 6.479-9.09 11.854-14.15 16.041 12.41-36.59 22.21-74.364 29.48-113.01v-.077c2.37-12.727 4.42-25.526 6.24-38.33 6.8-3.084 13.67-5.453 19.12-6.56 19.69-3.952 29.96 2.292 47.66-8.852 7.75-4.978 9.64-13.275 18.97-17.466 7.82-3.558 18.33 1.818 27.26-2.925 17.31-9.165 15.34-25.129 26.79-38.959 11.22-13.594 29.32-13.12 39.12-27.425-17.46-8.693-48.91-18.649-59.43-33.189 3.64-15.019 31.69-71.127 7.98-78.478-34.93-10.748-30.66 59.905-32.71 74.129-2.93 20.39-9.17 66.541-30.59 73.893-15.57 5.217-25.6-7.112-38.64-11.38-5.93-1.899-12.02-2.292-18.18-2.532.55-12.881.95-25.842.95-38.881 0-7.664-.16-15.409-.4-23.076 0-.791 0-1.578-.07-2.37 28.37-20.706 35.95-40.305 54.21-69.783 8.61-13.912 37.77-51.369 51.68-59.588 27.35-16.281 61.17 11.063 88.12 14.381 3.24.474 8.85.714 15.49 1.189v.077c11.22 13.039 22.05 26.317 32.4 39.989-17.54 7.903-58.72 12.881-72.7 18.175 22.28 14.938 48.05 44.651 73.81 21.733 7.11-6.32 8.06-13.671 13.12-20.702 92.39 128.577 149.76 283.95 158.06 452.286-15.02-10.2-22.61-31.378-48.84-25.767 12.4 10.987 21.81 30.587 35.01 39.437 5.85 3.95 10.27 5.37 14.54 5.69.24 7.74.32 15.41.32 23.16z" fill="#b6d54e"/></g></svg>