<svg xmlns="http://www.w3.org/2000/svg" width="100%" height="100%" viewBox="0 0 8842 8842" fill-rule="nonzero" stroke-linejoin="round" stroke-miterlimit="2" xmlnsV="https://vecta.io/nano"><path d="M7954.923 4419.545c0 57-1.458 113.958-4.083 170.208-4.625 99.042-13.292 197.042-26.083 293.875-8.458 63.75-18.333 127-30.208 189.792v.25c-306.917 1640.085-1745.835 2881.252-3475.003 2881.252-1952.781 0-3535.632-1582.835-3535.632-3535.378 0-757.026 237.846-1458.501 643.042-2033.681 173.375-246.067 377.171-468.946 606.1-663.338 4.338-3.617 8.683-7.475 13.025-10.85l64.971-53.608c83.783-66.883 170.467-130.171 260.296-189.308 119.288-79.221 243.638-150.929 372.346-215.163 57.467-28.733 115.671-55.775 174.842-81.133 429.571-185.692 903.326-288.559 1401.009-288.559h2.875c119.792 0 238.125 6.025 354.75 17.875h.25c293.375 29.442 576.125 94.879 843.917 191.721 576.667 208.396 1083.501 562.396 1476.376 1017.567v.242c46.833 54.329 91.75 109.621 135 166.604 20.25 26.338 40.042 53.138 59.375 80.183 384.917 535.58 623.959 1183.205 658.501 1884.447l2.875 80.667c1 32.125 1.458 64.208 1.458 96.333z" fill="#b4f7ff"/><path d="M4557.42 6132.047c-133.042 48.042-187.625 6.292-242.459 157.208-29.917 82.583-58.417 148.25-130.833 201.167-84.054 61.542-137.4 148.708-192.713 234.917-24.629 38.625-50.954 76.792-84.508 108.167-13.521 12.833-28.267 24.167-42.996 35.75-15.208 12.083-41.513 39.625-62.529 39.375 9.421 34.542 25.6 74.375-.254 105.75-28.25 34.542-82.321 29-109.863 64.25-71.713 91.5 93.688 104.083 141.988 117.583 71.95 20.542 12.8 88.875-33.817 95.125 1.467 41.083 20.05 81.875 6.046 121.958-18.342 52.625-75.342 60.375-79.2 118.792-3.633 57.5 81.133 158.167 113.742 201.625 3.854 4.875-46.613 46.375-53.367 49.5-20.05 9.417-37.188 9.208-57.483.75-47.817-20.542-82.092-80.417-108.175-122.417-68.333-109.167-115.667-229.667-157.683-350.875-55.55-160.583-62.783-325-77.754-492.375-13.042-148-10.146-282.75 9.421-430.292 14.729-111.333 43.221-294.084-48.063-382.5-47.075-45.167-120.246-52.125-156.217-110.583-59.65-96.333-36.467-216.834-126.292-299.417-51.921-47.833-48.288-91.5-26.567-155.5 9.904-29.458 20.05-58.667 21.496-89.833.967-23.208-4.354-47.583 1.45-70.292 14.246-55.292 80.875-67.583 122.663-94.875 29.454-19.083 41.05-57 44.425-90.333 2.908-27.042 7.492-78.708-19.55-95.833-3.875-2.417-8.204-3.875-13.283-4.125-30.658-2.417-63.025.708-93.929.5-21.979 0-47.096 3.625-68.575 0-155.271-25.875-139.321-198-312.234-224.584-138.35-21.25-230.354-44.917-363.888-88.125-57.725-18.625-144.421 1.208-194.146-20.042-82.342-35-48.063-48.042-60.358-136.917-21.5-152.375-19.333-703.896-276.729-681.917-62.792 5.308-19.813 172.879 43.2 347.25 77.533 214.167-47.8 243.125-88.85 72.417-31.146-129.188-35.988-226.979-84.508-352.792-51.917-134.242-14.729-259.334-19.088-398.171-4.579-137.65 1.933-274.8-1.683-411.467-3.379-129.692-76.554-238.35-88.871-367.042-12.538-131.363-6.754-243.396-58.429-347.959 173.375-246.067 377.171-468.946 606.1-663.338 15.933 18.604 31.388 37.675 46.35 56.983-15.204-19.533-26.8-43.458-33.325-67.833l64.971-53.608c5.788 11.092 10.629 21.967 15.208 29.696 36.708 61.325 99.479 112.763 157.925 152.846 60.358 41.529 131.108 71 205.488 68.575-33.092-17.142-143.921 4.842-111.092-95.863 83.8 45.15 157.925 6.288 241.004 28.75 94.171 25.338 136.188 99.479 247.271 90.538 97.554-7.733 175.292-84.75 273.096-45.871 99.733 39.6 71.483 93.45 192.442 60.375 90.333-24.392 96.121-84.771 124.613 28.25 23.908 95.621-30.179 134-92.488 184.004-71.467 57.208-120.25 71.225-204.275 91.021-110.121 26.317-102.388 29.467-162.746 127.504-24.154 39.117-48.542 79.204-67.629 120.971-23.65 51.921-47.079 128.471-19.308 183.279 15.95 31.388 48.042 50.475 77.754 66.892 28.975 15.933 69.542 19.792 88.85 49.742 15.213 23.671 2.908 50.471-.225 76.071-3.15 24.375-2.413 49.971-1.704 74.604 1.225 38.879 7.492 89.829 42.258 113.979 116.633 79.929 88.863-89.346 125.088-133.288 47.079-57 103.833 7.975 158.65-41.546 41.529-37.658 22.946-176.275 30.179-230.846 13.038-99.958 103.833-360.271 199.213-157.921 33.088 70.758-16.417 132.567 70.504 176.992 61.1 31.4 153.117-28.958 209.617 17.638 66.629 54.813 5.308 102.133 5.788 165.175.483 81.358 2.408 61.329 62.546 118.067 25.821 24.633 49.746 55.292 70.5 84.025 29.717 40.808 68.342 111.088 23.925 155.513-31.413 31.646-80.9 28.267-120.504 19.808-68.092-14.004-122.196-49.504-183.279-80.667-48.783-24.858-125.092-57.946-169.517-6.992-30.179 34.775-18.846 87.9 14.725 115.908 49.975 41.775 114.933 23.896 173.621 22.204 56.983-1.446 122.421 4.6 163.483 48.788 38.863 41.546 35.504 111.808-1.463 155.029-18.342 21.496-44.425 37.908-71.95 44.438-99.721 22.688-190.046-58.683-289.513-47.333-39.858 4.338-51.933 42.013-56.033 76.55-4.342 35.967-18.829 54.571-57.225 48.042-32.846-5.788-68.108-14.967-101.679-6.754-46.354 11.596-64.942 58.913-76.775 100.683-29.938 105.046-32.367 207.429-137.392 276.25-99.254 64.954-140.546 23.908-129.913 170.238 3.629 50.488 23.663 272.404-87.663 152.154-67.85-73.208 53.604-216.871-112.517-221.213-109.883-3.133-82.596 96.838-190.775 77.017-95.363-17.863-165.642-107.692-236.884 37.654-18.104 37-9.65 91.042-24.633 131.875-16.654 44.875-66.404 78.208-60.117 131.333 3.617 29.25 12.554 66.667 30.663 90.583 66.883 88.125 222.638-32.125 284.463-70.042 25.838-15.958 64.713-56.25 97.788-44.667 55.054 19.333.242 92.75-21.479 117.375-39.621 44.625-114.467 95.833-52.158 156.208 19.804 19.333 47.075 29.208 74.121 31.625 50.229 4.375 100.458-7.708 150.929-4.083 28.492 1.917 79.442 11.583 57.708 48.75-23.413 40.333-115.654 85-55.058 139.333 44.913 40.083 63.029-22.208 105.042-19.083 12.075 1 24.15 4.375 35.263 8.708 17.142 6.542 29.938 20.042 49.492 18.125 16.175-1.708 29.454-11.833 38.396-25.125 10.383-15.208 13.763-34.5 23.908-50.25 14.967-22.917 36.946-41.5 61.096-54.292 35.488-18.833 76.292-20.292 115.413-21 10.888 0 31.646-5.583 40.083 3.583 9.904 10.625-2.892 40.333-7.233 51.458-6.046 15.708-16.417 29.708-21.963 45.625-4.842 14.25-8.717 31.625 2.638 43.958 12.796 14 32.367 8.208 44.921-2.667 9.646-8.667 16.9-20.042 22.688-31.625 12.333-23.417 14.488-55.292 45.167-62.042 44.904-9.917 67.113 67.833 90.071 91.25 23.167 24.167 53.121 42.042 81.371 59.667 68.579 43.208 149.95 63.25 227.95 82.333 150.204 36.958 142.954 98.042 233.475 207.167 129.708 156.25 592.584 28.75 590.417 323.834-.708 96.583-103.083 165.417-112.75 269.209-11.375 123.875 48.792 214.709-92.5 265.875zm3397.503-1712.502c0 57-1.458 113.958-4.083 170.208-2.167 1.208-4.625 2.417-6.75 3.875-57.75 35.25-95.667 95.375-161.583 120.25-299.917 112.042-270.917-425.209-549.792-467.25-4.583 106 79.208 170.75 127.25 256.709 51.917 92.958 105.25 184.5 152.333 279.834 52.917 106.75 81.167 153.833 206.958 133.333 48.292-8 149.5-61.833 205.5-32.875-8.458 63.75-18.333 127-30.208 189.792v.25c-96.583 99-269.959 191.5-324.75 226.75-68.333 44.208-164.708 78-171.458 171.458-7 94.625 90.083 162.5 89.833 263.667-.5 146.333-98.792 98.292-156.958 199.458-58.458 101.167 78 99.25 49.75 211.542-88.875 18.583-106.25 124.333-160.583 185.458-34.542 38.375-93.458 64.917-120 107.208-25.875 41.042-.25 86.917-38.417 125.083-51.417 51.417-91.042 13.25-147.75 25.333-153.833 32.583-141.042 73.417-215.917-56.5-33.792-58.667-121.667-125.333-57.458-192.458-166.125-157.417-223.584-448.167-135.208-660.667 63.042-151.167 50.208-127.708-28.5-271.167-49.25-89.583-8.208-176.5-111.083-237.375-87.625-51.917-211.542-26.542-307.375-6.5-126.083 26.083-210.334 37.917-340.25-20.042-102.375-45.625-137.167-148.042-209.375-224.584-116.125-123.125-32.833-145.375 8.958-284.459 16.667-55.542 4.333-124.583 24.375-176.75 16.667-43.958 59.417-65.208 77.042-106.5 19.583-45.875 7-95.833 26.792-142.708 16.917-39.333 59.167-53.338 71.25-102.379 75.083 5.325 96.333-72.671 157.208-99.958 50.917-22.704 137.375-13.521 194.625-27.283 70-17.142 91.5-34.296 143.167-82.579 43.458-40.325 59.667-116.875 140.333-67.608-71.5 191.238 275 297.725 416.5 286.854 39.375-155.975 139.583-43.942 260.334-39.604 92.208 3.396 214.917-7.971 310.75-16.175-28.958-58.683-21.708-129.188-42.5-189.788-80.667-11.108-123.875 49.267-202.833 21.242-53.125-19.071-90.542-70.992-128.917-108.421-5.333 15.708-25.375 32.367-29.958 55.054-172.917-18.829-93.208-118.308-146.333-226.017-29.708-60.121-141.75-121.7-204.542-143.904-100.667-35.758-198.708-5.321-118.083 103.821 58.458 78.963 150.708 77.513 191.75 182.796-98.042-14.004-75.375 121.458-149.208 139.321 37.417-114.204-38.667-324.046-176.542-356.879-111.333-26.579-181.583 138.354-231.084 211.288-77.042 113.242-175.792 145.592-306.167 99.963-83.333-29.217-240.292-69.542-168.083-194.133 63.958-110.846 307.625-21.754 419.667-24.633 16.167-152.617-283.5-92.483-112.5-257.417 43.208-41.775 111.542-96.104 163.208-135.463 42.5-32.125 122.667-69.3 173.625-79.683 81.833-16.658 124.833 9.417 198.5-37.192 32.333-20.517 40.083-55.054 78.958-72.679 32.583-14.725 76.5 7.479 113.708-12.075 71.958-38.15 64-104.8 111.583-162.279 46.833-56.738 122.167-54.808 162.958-114.204-72.667-36.225-203.792-77.758-247.459-138.596 14.958-62.563 131.833-296.296 33.292-326.734-145.625-44.913-127.958 249.442-136.417 308.613-12.333 85.004-38.167 277.45-127.5 307.871-64.708 21.979-106.5-29.454-161.083-47.096-53.583-17.363-113-5.063-162.958-20.996-172.917-55.538-38.667-173.617 54.792-233.992 147.542-95.379 177.458-180.371 260.334-314.4 35.958-58.192 157.417-214.167 215.375-248.463 113.958-67.613 255 46.113 367.25 60.133 13.292 1.671 36.708 2.896 64.5 4.825v.242c46.833 54.329 91.75 109.621 135 166.604-73.208 32.85-244.625 53.846-303.084 75.825 93 62.304 200.417 185.95 307.667 90.554 29.667-26.317 33.542-56.979 54.792-86.196 384.917 535.58 623.959 1183.205 658.501 1884.447-62.542-42.5-94.167-130.642-203.583-107.233 51.708 45.65 90.833 127.275 145.875 164.192 24.375 16.417 42.958 22.25 60.583 23.708 1 32.125 1.458 64.208 1.458 96.333zM5614.838 1183.813c-17.125 35.021-64.25 28.975-80.167 57.467-20.542 36.225-40.333 201.883-38.167 233.992 5.333 86.679 54.833 127.746 15.958 216.834-12.333 28.008-50.5 39.846-61.833 71.229-10.625 29.213.958 84.525-1.708 115.671-93.208 25.838-14.958 81.15-51.667 131.842-33.292 46.129-169.5 59.65-221.917 67.371-77.958 181.108-342.125 157.683-437.042 346.025-36.25 72.213 10.375 249.684-79.958 283.979-93.667 35.746-126.5-88.621-155.5-144.396-38.875-74.621-104.792-150.196-98.25-239.3 5.292-73.9 64.458-150.433 88.833-220.713 23.667-68.333 84.75-169.258 87.417-239.538 3.167-79.188-56.958-184.725-73.625-264.413-48.083-228.184-387.809-149.225-315.875-436.1 78.75-6.042 169.542 44.667 243.667-2.892 41.75-27.046 69.792-105.525 112.542-141.508 42.458-35.483 77.75-49.004 126.75-73.154 35.042-17.4 69.042-31.871 102.875-44.429h.25c293.375 29.442 576.125 94.879 843.917 191.721 1.958 32.35 4.125 68.333-6.5 90.313zm-2402.894 395.055c-12.8 92.721-3.879 143.917-117.842 154.288 4.842 19.808-5.546 52.642 1.45 73.175-198.25-78.725-637.484-42.996-624.205-337.571 119.288-79.221 243.638-150.929 372.346-215.163 57.467 50.229 62.067 140.525 124.833 211.529 76.313 85.729 68.596 27.288 156.963 3.633 34.779-9.421 86.213-38.413 117.117 2.879 41.063 55.296-24.375 63.029-30.663 107.229zm599.605 450.034c93.396 125.479 5.513 180.375-138.2 174.375 5.938 101.15 93.533 73.192 147.283 125.429 49.121 47.754 27.721 137.667 104.525 155.142 254.513 58.013-103.017-334.259 109.013-291.909 72.404 14.492 69.233 139.904 159.083 118.179 78.542-19.021 80.458-127.567 49.25-181.4-37.542-64.763-163.938-69.717-181.996-142.517-20.838-83.996 74.75-80.313 10.55-152.408-26.15-29.313-86.683-15.05-116.767-55.346-58.283-78.171 5.758-79.233-88.671-128-52.338-27.013-123.05 12.992-115.863-84.088-110.525-20.392-373.329 43.038-266.1 202.554 38.992 57.963 133.517 64.317 187.942 104.496 53.913 39.763 100.025 101.921 139.95 155.492zM4422.42 883.905c-100.417 29.213-204 51.192-228.875 72.204-69.8 58.913-72.213 139.804-156.979 193.171-80.167 50.471-173.617 84.263-255.234 134.496 156.479 89.346 133.775 176.046-33.571 142.233-62.046-12.558-120.254-7.738-183.038-16.9-53.833-7.733-121.458-71.713-176.254-91.038-66.904-23.667-134.033-28.25-203.813-37.913-80.646-11.108-189.792-28.496-166.121-107.696 429.571-185.692 903.326-288.559 1401.009-288.559h2.875z" fill="#efffb8"/><path d="M7954.881 4419.712a3660.68 3660.68 0 0 1-3.958 170.208c-4.625 98.792-13.5 196.917-26.042 293.75-8.542 63.875-18.417 127.083-30.292 189.667v.333c-306.875 1640.168-1745.876 2881.252-3475.003 2881.252-1423.501 0-2650.102-841.001-3210.215-2053.127 450.796 208.792 952.626 325.042 1481.805 325.042 245.646 0 485.7-25.042 717.184-73.125 496.567-102.042 955.267-308.542 1351.726-595.334 268.042-193.625 507.792-423.792 711.917-683.626 209.75-266.709 381.667-564.375 508.125-884.797 22.708-56.963 44.083-114.908 63.208-173.533 51.708-152.458 92.542-309.85 122.833-470.875v-.321c9.875-53.029 18.417-106.358 26-159.708 1.667-9.888 2.958-20.1 4.292-29.971 12.833-97.146 21.417-194.938 26-294.063 0-2.621.333-5.596.333-8.233 2.292-53.671 3.958-107.675 3.958-162.004 0-31.933-.667-64.204-1.667-96.15 0-3.296 0-6.575-.292-9.875-.375-24.038-1.333-47.417-2.667-70.792-22.708-464.3-135-905.226-320.375-1305.643 461 213.054 868.334 522.584 1195.959 902.263v.321c46.75 54.329 91.875 109.654 135 166.621l59.292 80.025c384.959 535.738 624 1183.126 658.584 1884.527l2.958 80.667c1 32.25 1.333 64.208 1.333 96.5z" fill="#b4f7ff"/><path d="M4557.587 6132.005c-133.375 48.083-187.708 6.25-242.667 157.375-30 82.333-58.292 148.208-130.75 200.875-83.967 61.583-137.313 148.833-192.642 235.125-24.696 38.542-51.033 76.708-84.621 108-13.504 12.833-28.313 24.375-43.138 35.917-15.146 12.167-41.483 39.5-62.242 39.5 9.229 34.25 25.354 74.083-.321 105.708-28.313 34.583-82.321 28.958-109.975 64.208-71.792 91.542 93.833 104.042 141.908 117.542 72.129 20.417 12.846 88.917-33.575 95.167 1.304 40.833 20.083 81.667 5.917 121.833-18.438 52.667-75.404 60.25-79.358 118.875-3.621 57.292 81.338 158.042 113.946 201.542 3.938 4.917-46.771 46.417-53.35 49.708-20.083 9.208-37.204 8.875-57.625.667-47.754-20.75-82-80.333-108.017-122.5-68.479-109-115.908-229.5-157.729-351.042-55.65-160.333-62.883-325-77.708-492.292-13.171-147.833-10.208-282.5 9.229-430.375 8.558-64.875 22.058-153.417 13.492-234.125 496.567-102.042 955.267-308.542 1351.726-595.334 2 12.167 2.667 24.708 2.667 38.542-.667 96.458-103.083 165.292-112.958 269.334-11.208 123.833 49.042 214.709-92.208 265.75zm3397.294-1712.293a3660.68 3660.68 0 0 1-3.958 170.208c-2.292 1-4.625 2.333-6.917 3.625-57.625 35.25-95.5 95.5-161.375 120.208-299.959 112.292-271-425.125-549.917-467.292-4.583 106.042 79.042 170.917 127.125 256.875 52.042 92.833 105.375 184.417 152.458 279.875 53 106.708 81 153.792 207.125 133.375 48.083-8.25 149.167-61.917 205.458-32.917-8.542 63.875-18.417 127.083-30.292 189.667v.333c-96.458 99.125-270 191.625-324.667 226.875-68.5 44.125-164.958 77.708-171.583 171.208-6.917 94.875 89.917 162.708 89.917 263.792-.667 146.167-98.792 98.417-157.042 199.542-58.292 101.083 78 99.083 49.708 211.417-88.917 18.75-106.375 124.458-160.375 185.375-34.583 38.5-93.5 65.208-120.208 107.333-25.667 41.167-.292 86.917-38.5 125.125-51.375 51.375-90.917 13.167-147.542 25.375-153.75 32.583-141.25 73.417-216-56.667-33.917-58.583-121.833-125.125-57.292-192.292-166.292-157.375-223.584-448.167-135.333-660.876 62.875-151.167 50.042-127.417-28.667-271-49.042-89.583-8.25-176.5-110.958-237.417-87.583-52.042-211.417-26.667-307.209-6.583-126.125 26-210.459 37.875-340.5-20.083-102.417-45.458-137-147.875-209.459-224.584-15.792-16.792-27.958-31.958-36.875-45.458 209.75-266.709 381.667-564.375 508.125-884.797 31.917-1.954 63.542-3.279 89.208-9.546 69.833-17.108 91.583-34.571 143.25-82.646 43.458-40.5 59.625-116.892 140.292-67.496-71.458 190.979 274.959 297.679 416.542 286.809 39.167-156.088 139.625-44.133 260.125-39.842 92.208 3.617 215.042-7.908 310.875-16.146-29-58.604-21.75-129.075-42.5-189.663-80.667-11.204-123.792 49.396-202.833 21.067-53-18.763-90.583-70.796-129.083-108.342-5.25 15.808-25.375 32.271-29.958 55.008-172.875-18.783-93.208-118.229-146.208-225.904-29.625-60.263-141.583-121.829-204.5-143.888-100.75-35.904-198.875-5.275-118.208 103.725 58.625 79.025 150.833 77.704 192 182.746-98.167-13.825-75.417 121.504-149.5 139.292 37.542-113.933-38.542-324.017-176.5-356.625-111.333-26.675-181.458 138.308-230.834 211.079-18.458 26.996-37.875 49.392-58.958 66.838 51.708-152.458 92.542-309.85 122.833-470.875v-.321c9.875-53.029 18.417-106.358 26-159.708 28.333-12.85 56.958-22.721 79.667-27.333 82.042-16.467 124.833 9.55 198.583-36.883 32.292-20.742 40.167-55.313 79.042-72.775 32.583-14.825 76.375 7.575 113.583-12.188 72.125-38.188 63.917-104.704 111.625-162.329 46.75-56.642 122.167-54.667 163-114.271-72.75-36.221-203.792-77.704-247.625-138.288 15.167-62.579 132.042-296.363 33.25-326.992-145.542-44.783-127.75 249.604-136.292 308.871-12.208 84.958-38.208 277.254-127.458 307.888-64.875 21.738-106.667-29.633-161-47.417-24.708-7.913-50.083-9.55-75.75-10.55 2.292-53.671 3.958-107.675 3.958-162.004 0-31.933-.667-64.204-1.667-96.15 0-3.296 0-6.575-.292-9.875 118.208-86.275 149.792-167.938 225.875-290.763 35.875-57.967 157.375-214.038 215.334-248.284 113.958-67.838 254.875 46.096 367.167 59.921 13.5 1.975 36.875 2.975 64.542 4.954v.321c46.75 54.329 91.875 109.654 135 166.621-73.083 32.929-244.667 53.671-302.917 75.729 92.833 62.242 200.208 186.046 307.542 90.554 29.625-26.333 33.583-56.963 54.667-86.258 384.959 535.738 624 1183.126 658.584 1884.527-62.583-42.5-94.208-130.742-203.5-107.363 51.667 45.779 90.875 127.446 145.875 164.321 24.375 16.458 42.792 22.375 60.583 23.708 1 32.25 1.333 64.208 1.333 96.5z" fill="#efffb8"/></svg>