<?xml version="1.0" encoding="UTF-8" standalone="no"?><!DOCTYPE svg PUBLIC "-//W3C//DTD SVG 1.1//EN" "http://www.w3.org/Graphics/SVG/1.1/DTD/svg11.dtd"><svg width="100%" height="100%" viewBox="0 0 100 50" version="1.1" xmlns="http://www.w3.org/2000/svg" xmlns:xlink="http://www.w3.org/1999/xlink" xml:space="preserve" xmlnsSerif="http://www.serif.com/" style="fill-rule:evenodd;clip-rule:evenodd;stroke-linecap:round;stroke-linejoin:round;stroke-miterlimit:1.5;"><rect id="Artboard1" x="0" y="0" width="100" height="50" style="fill:none;"/><g id="Artboard11" serifId="Artboard1"><g><path d="M87.86,25c-0,-10.352 -8.405,-18.757 -18.757,-18.757l-38.206,0c-10.352,0 -18.757,8.405 -18.757,18.757c0,10.352 8.405,18.757 18.757,18.757l38.206,-0c10.352,-0 18.757,-8.405 18.757,-18.757Z" style="fill:#13909b;"/><ellipse cx="69.273" cy="25" rx="17.5" ry="17.331" style="fill:#fff;"/><g id="sun"><circle cx="69.35" cy="25.084" r="7.817" style="fill:none;stroke:#13909b;stroke-width:1.8px;"/><path d="M69.35,11.708l0,2.313" style="fill:none;stroke:#13909b;stroke-width:1.8px;"/><path d="M69.35,35.979l0,2.313" style="fill:none;stroke:#13909b;stroke-width:1.8px;"/><path d="M83.274,24.552l-2.313,-0" style="fill:none;stroke:#13909b;stroke-width:1.8px;"/><path d="M83.274,24.552l-2.313,-0" style="fill:none;stroke:#13909b;stroke-width:1.8px;"/><path d="M79.411,15.722l-1.778,1.478" style="fill:none;stroke:#13909b;stroke-width:1.8px;"/><path d="M61.321,16.417l-1.557,-1.71" style="fill:none;stroke:#13909b;stroke-width:1.8px;"/><path d="M60.988,32.791l-1.751,1.511" style="fill:none;stroke:#13909b;stroke-width:1.8px;"/><path d="M78.926,34.347l-1.669,-1.601" style="fill:none;stroke:#13909b;stroke-width:1.8px;"/><path d="M57.974,24.552l-2.313,-0" style="fill:none;stroke:#13909b;stroke-width:1.8px;"/></g></g></g></svg>