<?xml version="1.0" encoding="UTF-8" standalone="no"?>
<!DOCTYPE svg PUBLIC "-//W3C//DTD SVG 1.1//EN" "http://www.w3.org/Graphics/SVG/1.1/DTD/svg11.dtd">
<svg width="100%" height="100%" viewBox="0 0 1920 1080" version="1.1" xmlns="http://www.w3.org/2000/svg" xmlns:xlink="http://www.w3.org/1999/xlink" xml:space="preserve" xmlns:serif="http://www.serif.com/" style="fill-rule:evenodd;clip-rule:evenodd;stroke-linejoin:round;stroke-miterlimit:2;">
    <rect x="0" y="0" width="1920" height="1080" style="fill:rgb(200,245,255);"/>
    <g id="earth.svg" transform="matrix(0.137242,0,0,0.137242,1506.75,1021.1)">
        <g transform="matrix(1,0,0,1,-4421,-4421)">
            <g transform="matrix(4.16667,0,0,4.16667,0,0)">
                <path d="M1909.18,1060.69C1909.18,1074.37 1908.83,1088.04 1908.2,1101.54C1907.09,1125.31 1905.01,1148.83 1901.94,1172.07C1899.91,1187.37 1897.54,1202.55 1894.69,1217.62L1894.69,1217.68C1821.03,1611.3 1475.69,1909.18 1060.69,1909.18C592.023,1909.18 212.139,1529.3 212.139,1060.69C212.139,879.004 269.222,710.65 366.469,572.607C408.079,513.551 456.99,460.06 511.933,413.406C512.974,412.538 514.017,411.612 515.059,410.802C520.218,406.457 525.377,402.166 530.652,397.936C550.76,381.884 571.564,366.695 593.123,352.502C621.752,333.489 651.596,316.279 682.486,300.863C696.278,293.967 710.247,287.477 724.448,281.391C827.545,236.825 941.246,212.137 1060.69,212.137L1061.38,212.137C1090.13,212.137 1118.53,213.583 1146.52,216.427L1146.58,216.427C1216.99,223.493 1284.85,239.198 1349.12,262.44C1487.52,312.455 1609.16,397.415 1703.45,506.656L1703.45,506.714C1714.69,519.753 1725.47,533.023 1735.85,546.699C1740.71,553.02 1745.46,559.452 1750.1,565.943C1842.48,694.482 1899.85,849.912 1908.14,1018.21C1908.43,1024.64 1908.72,1031.07 1908.83,1037.57C1909.07,1045.28 1909.18,1052.98 1909.18,1060.69Z" style="fill:rgb(29,190,204);fill-rule:nonzero;"/>
                <path d="M1093.78,1471.69C1061.85,1483.22 1048.75,1473.2 1035.59,1509.42C1028.41,1529.24 1021.57,1545 1004.19,1557.7C984.017,1572.47 971.214,1593.39 957.939,1614.08C952.028,1623.35 945.71,1632.51 937.657,1640.04C934.412,1643.12 930.873,1645.84 927.338,1648.62C923.688,1651.52 917.375,1658.13 912.331,1658.07C914.592,1666.36 918.475,1675.92 912.27,1683.45C905.49,1691.74 892.513,1690.41 885.903,1698.87C868.692,1720.83 908.388,1723.85 919.98,1727.09C937.248,1732.02 923.052,1748.42 911.864,1749.92C912.216,1759.78 916.676,1769.57 913.315,1779.19C908.913,1791.82 895.233,1793.68 894.307,1807.7C893.435,1821.5 913.779,1845.66 921.605,1856.09C922.53,1857.26 910.418,1867.22 908.797,1867.97C903.985,1870.23 899.872,1870.18 895.001,1868.15C883.525,1863.22 875.299,1848.85 869.039,1838.77C852.639,1812.57 841.279,1783.65 831.195,1754.56C817.863,1716.02 816.127,1676.56 812.534,1636.39C809.404,1600.87 810.099,1568.53 814.795,1533.12C818.33,1506.4 825.168,1462.54 803.26,1441.32C791.962,1430.48 774.401,1428.81 765.768,1414.78C751.452,1391.66 757.016,1362.74 735.458,1342.92C722.997,1331.44 723.869,1320.96 729.082,1305.6C731.459,1298.53 733.894,1291.52 734.241,1284.04C734.473,1278.47 733.196,1272.62 734.589,1267.17C738.008,1253.9 753.999,1250.95 764.028,1244.4C771.097,1239.82 773.88,1230.72 774.69,1222.72C775.388,1216.23 776.488,1203.83 769.998,1199.72C769.068,1199.14 768.029,1198.79 766.81,1198.73C759.452,1198.15 751.684,1198.9 744.267,1198.85C738.992,1198.85 732.964,1199.72 727.809,1198.85C690.544,1192.64 694.372,1151.33 652.873,1144.95C619.669,1139.85 597.588,1134.17 565.54,1123.8C551.686,1119.33 530.879,1124.09 518.945,1118.99C499.183,1110.59 507.41,1107.46 504.459,1086.13C499.299,1049.56 499.819,917.195 438.044,922.47C422.974,923.744 433.289,963.961 448.412,1005.81C467.02,1057.21 436.94,1064.16 427.088,1023.19C419.613,992.185 418.451,968.715 406.806,938.52C394.346,906.302 403.271,876.28 402.225,842.959C401.126,809.923 402.689,777.007 401.821,744.207C401.01,713.081 383.448,687.003 380.492,656.117C377.483,624.59 378.871,597.702 366.469,572.607C408.079,513.551 456.99,460.06 511.933,413.406C515.757,417.871 519.466,422.448 523.057,427.082C519.408,422.394 516.625,416.652 515.059,410.802C520.218,406.457 525.377,402.166 530.652,397.936C532.041,400.598 533.203,403.208 534.302,405.063C543.112,419.781 558.177,432.126 572.204,441.746C586.69,451.713 603.67,458.786 621.521,458.204C613.579,454.09 586.98,459.366 594.859,435.197C614.971,446.033 632.761,436.706 652.7,442.097C675.301,448.178 685.385,465.972 712.045,463.826C735.458,461.97 754.115,443.486 777.588,452.817C801.524,462.321 794.744,475.245 823.774,467.307C845.454,461.453 846.843,446.962 853.681,474.087C859.419,497.036 846.438,506.247 831.484,518.248C814.332,531.978 802.624,535.342 782.458,540.093C756.029,546.409 757.885,547.165 743.399,570.694C737.602,580.082 731.749,589.703 727.168,599.727C721.492,612.188 715.869,630.56 722.534,643.714C726.362,651.247 734.064,655.828 741.195,659.768C748.149,663.592 757.885,664.518 762.519,671.706C766.17,677.387 763.217,683.819 762.465,689.963C761.709,695.813 761.886,701.956 762.056,707.868C762.35,717.199 763.854,729.427 772.198,735.223C800.19,754.406 793.525,713.78 802.219,703.234C813.518,689.554 827.139,705.148 840.295,693.263C850.262,684.225 845.802,650.957 847.538,637.86C850.667,613.87 872.458,551.395 895.349,599.959C903.29,616.941 891.409,631.775 912.27,642.437C926.934,649.973 949.018,635.487 962.578,646.67C978.569,659.825 963.852,671.182 963.967,686.312C964.083,705.838 964.545,701.031 978.978,714.648C985.175,720.56 990.917,727.918 995.898,734.814C1003.03,744.608 1012.3,761.475 1001.64,772.137C994.101,779.732 982.224,778.921 972.719,776.891C956.377,773.53 943.392,765.01 928.732,757.531C917.024,751.565 898.71,743.624 888.048,755.853C880.805,764.199 883.525,776.949 891.582,783.671C903.576,793.697 919.166,789.406 933.251,789C946.927,788.653 962.632,790.104 972.487,800.709C981.814,810.68 981.008,827.543 972.136,837.916C967.734,843.075 961.474,847.014 954.868,848.581C930.935,854.026 909.257,834.497 885.385,837.221C875.819,838.262 872.921,847.304 871.937,855.593C870.895,864.225 867.418,868.69 858.203,867.123C850.32,865.734 841.857,863.531 833.8,865.502C822.675,868.285 818.214,879.641 815.374,889.666C808.189,914.877 807.606,939.449 782.4,955.966C758.579,971.555 748.669,961.704 751.221,996.823C752.092,1008.94 756.9,1062.2 730.182,1033.34C713.898,1015.77 743.047,981.291 703.178,980.249C676.806,979.497 683.355,1003.49 657.392,998.733C634.505,994.446 617.638,972.887 600.54,1007.77C596.195,1016.65 598.224,1029.62 594.628,1039.42C590.631,1050.19 578.691,1058.19 580.2,1070.94C581.068,1077.96 583.213,1086.94 587.559,1092.68C603.611,1113.83 640.992,1084.97 655.83,1075.87C662.031,1072.04 671.361,1062.37 679.299,1065.15C692.512,1069.79 679.357,1087.41 674.144,1093.32C664.635,1104.03 646.672,1116.32 661.626,1130.81C666.379,1135.45 672.924,1137.82 679.415,1138.4C691.47,1139.45 703.525,1136.55 715.638,1137.42C722.476,1137.88 734.704,1140.2 729.488,1149.12C723.869,1158.8 701.731,1169.52 716.274,1182.56C727.053,1192.18 731.401,1177.23 741.484,1177.98C744.382,1178.22 747.28,1179.03 749.947,1180.07C754.061,1181.64 757.132,1184.88 761.825,1184.42C765.707,1184.01 768.894,1181.58 771.04,1178.39C773.532,1174.74 774.343,1170.11 776.778,1166.33C780.37,1160.83 785.645,1156.37 791.441,1153.3C799.958,1148.78 809.751,1148.43 819.14,1148.26C821.753,1148.26 826.735,1146.92 828.76,1149.12C831.137,1151.67 828.066,1158.8 827.024,1161.47C825.573,1165.24 823.084,1168.6 821.753,1172.42C820.591,1175.84 819.661,1180.01 822.386,1182.97C825.457,1186.33 830.154,1184.94 833.167,1182.33C835.482,1180.25 837.223,1177.52 838.612,1174.74C841.572,1169.12 842.089,1161.47 849.452,1159.85C860.229,1157.47 865.559,1176.13 871.069,1181.75C876.629,1187.55 883.818,1191.84 890.598,1196.07C907.057,1206.44 926.586,1211.25 945.306,1215.83C981.355,1224.7 979.615,1239.36 1001.34,1265.55C1032.47,1303.05 1143.56,1272.45 1143.04,1343.27C1142.87,1366.45 1118.3,1382.97 1115.98,1407.88C1113.25,1437.61 1127.69,1459.41 1093.78,1471.69Z" style="fill:rgb(206,221,73);fill-rule:nonzero;"/>
                <path d="M1909.18,1060.69C1909.18,1074.37 1908.83,1088.04 1908.2,1101.54C1907.68,1101.83 1907.09,1102.12 1906.58,1102.47C1892.72,1110.93 1883.62,1125.36 1867.8,1131.33C1795.82,1158.22 1802.78,1029.28 1735.85,1019.19C1734.75,1044.63 1754.86,1060.17 1766.39,1080.8C1778.85,1103.11 1791.65,1125.08 1802.95,1147.96C1815.65,1173.58 1822.43,1184.88 1852.62,1179.96C1864.21,1178.04 1888.5,1165.12 1901.94,1172.07C1899.91,1187.37 1897.54,1202.55 1894.69,1217.62L1894.69,1217.68C1871.51,1241.44 1829.9,1263.64 1816.75,1272.1C1800.35,1282.71 1777.22,1290.82 1775.6,1313.25C1773.92,1335.96 1797.22,1352.25 1797.16,1376.53C1797.04,1411.65 1773.45,1400.12 1759.49,1424.4C1745.46,1448.68 1778.21,1448.22 1771.43,1475.17C1750.1,1479.63 1745.93,1505.01 1732.89,1519.68C1724.6,1528.89 1710.46,1535.26 1704.09,1545.41C1697.88,1555.26 1704.03,1566.27 1694.87,1575.43C1682.53,1587.77 1673.02,1578.61 1659.41,1581.51C1622.49,1589.33 1625.56,1599.13 1607.59,1567.95C1599.48,1553.87 1578.39,1537.87 1593.8,1521.76C1553.93,1483.98 1540.14,1414.2 1561.35,1363.2C1576.48,1326.92 1573.4,1332.55 1554.51,1298.12C1542.69,1276.62 1552.54,1255.76 1527.85,1241.15C1506.82,1228.69 1477.08,1234.78 1454.08,1239.59C1423.82,1245.85 1403.6,1248.69 1372.42,1234.78C1347.85,1223.83 1339.5,1199.25 1322.17,1180.88C1294.3,1151.33 1314.29,1145.99 1324.32,1112.61C1328.32,1099.28 1325.36,1082.71 1330.17,1070.19C1334.17,1059.64 1344.43,1054.54 1348.66,1044.63C1353.36,1033.62 1350.34,1021.63 1355.09,1010.38C1359.15,1000.94 1369.29,997.579 1372.19,985.809C1390.21,987.087 1395.31,968.368 1409.92,961.819C1422.14,956.37 1442.89,958.574 1456.63,955.271C1473.43,951.157 1478.59,947.04 1490.99,935.452C1501.42,925.774 1505.31,907.402 1524.67,919.226C1507.51,965.123 1590.67,990.68 1624.63,988.071C1634.08,950.637 1658.13,977.525 1687.11,978.566C1709.24,979.381 1738.69,976.653 1761.69,974.684C1754.74,960.6 1756.48,943.679 1751.49,929.135C1732.13,926.469 1721.76,940.959 1702.81,934.233C1690.06,929.656 1681.08,917.195 1671.87,908.212C1670.59,911.982 1665.78,915.98 1664.68,921.425C1623.18,916.906 1642.31,893.031 1629.56,867.181C1622.43,852.752 1595.54,837.973 1580.47,832.644C1556.31,824.062 1532.78,831.367 1552.13,857.561C1566.16,876.512 1588.3,876.164 1598.15,901.432C1574.62,898.071 1580.06,930.582 1562.34,934.869C1571.32,907.46 1553.06,857.098 1519.97,849.218C1493.25,842.839 1476.39,882.423 1464.51,899.927C1446.02,927.105 1422.32,934.869 1391.03,923.918C1371.03,916.906 1333.36,907.228 1350.69,877.326C1366.04,850.723 1424.52,872.105 1451.41,871.414C1455.29,834.786 1383.37,849.218 1424.41,809.634C1434.78,799.608 1451.18,786.569 1463.58,777.123C1473.78,769.413 1493.02,760.491 1505.25,757.999C1524.89,754.001 1535.21,760.259 1552.89,749.073C1560.65,744.149 1562.51,735.86 1571.84,731.63C1579.66,728.096 1590.2,733.425 1599.13,728.732C1616.4,719.576 1614.49,703.58 1625.91,689.785C1637.15,676.168 1655.23,676.631 1665.02,662.376C1647.58,653.682 1616.11,643.714 1605.63,629.113C1609.22,614.098 1637.27,558.002 1613.62,550.697C1578.67,539.918 1582.91,610.563 1580.88,624.764C1577.92,645.165 1571.72,691.352 1550.28,698.653C1534.75,703.928 1524.72,691.584 1511.62,687.35C1498.76,683.183 1484.5,686.135 1472.51,682.311C1431.01,668.982 1463.23,640.643 1485.66,626.153C1521.07,603.262 1528.25,582.864 1548.14,550.697C1556.77,536.731 1585.92,499.297 1599.83,491.066C1627.18,474.839 1661.03,502.133 1687.97,505.498C1691.16,505.899 1696.78,506.193 1703.45,506.656L1703.45,506.714C1714.69,519.753 1725.47,533.023 1735.85,546.699C1718.28,554.583 1677.14,559.622 1663.11,564.897C1685.43,579.85 1711.21,609.525 1736.95,586.63C1744.07,580.314 1745,572.955 1750.1,565.943C1842.48,694.482 1899.85,849.912 1908.14,1018.21C1893.13,1008.01 1885.54,986.856 1859.28,992.474C1871.69,1003.43 1881.08,1023.02 1894.29,1031.88C1900.14,1035.82 1904.6,1037.22 1908.83,1037.57C1909.07,1045.28 1909.18,1052.98 1909.18,1060.69Z" style="fill:rgb(206,221,73);fill-rule:nonzero;"/>
                <path d="M1347.56,284.115C1343.45,292.52 1332.14,291.069 1328.32,297.907C1323.39,306.601 1318.64,346.359 1319.16,354.065C1320.44,374.868 1332.32,384.724 1322.99,406.105C1320.03,412.827 1310.87,415.668 1308.15,423.2C1305.6,430.211 1308.38,443.486 1307.74,450.961C1285.37,457.162 1304.15,470.437 1295.34,482.603C1287.35,493.674 1254.66,496.919 1242.08,498.772C1223.37,542.238 1159.97,536.616 1137.19,581.818C1128.49,599.149 1139.68,641.742 1118,649.973C1095.52,658.552 1087.64,628.704 1080.68,615.318C1071.35,597.409 1055.53,579.271 1057.1,557.886C1058.37,540.15 1072.57,521.782 1078.42,504.915C1084.1,488.515 1098.76,464.293 1099.4,447.426C1100.16,428.421 1085.73,403.092 1081.73,383.967C1070.19,329.203 988.656,348.153 1005.92,279.303C1024.82,277.853 1046.61,290.023 1064.4,278.609C1074.42,272.118 1081.15,253.283 1091.41,244.647C1101.6,236.131 1110.07,232.886 1121.83,227.09C1130.24,222.914 1138.4,219.441 1146.52,216.427L1146.58,216.427C1216.99,223.493 1284.85,239.198 1349.12,262.44C1349.59,270.204 1350.11,278.84 1347.56,284.115Z" style="fill:rgb(206,221,73);fill-rule:nonzero;"/>
                <path d="M770.866,378.928C767.794,401.181 769.935,413.468 742.584,415.957C743.746,420.711 741.253,428.591 742.932,433.519C695.352,414.625 589.936,423.2 593.123,352.502C621.752,333.489 651.596,316.279 682.486,300.863C696.278,312.918 697.382,334.589 712.446,351.63C730.761,372.205 728.909,358.179 750.117,352.502C758.464,350.241 770.808,343.283 778.225,353.193C788.08,366.464 772.375,368.32 770.866,378.928Z" style="fill:rgb(206,221,73);fill-rule:nonzero;"/>
                <path d="M914.771,486.936C937.186,517.051 916.094,530.226 881.603,528.786C883.028,553.062 904.051,546.352 916.951,558.889C928.74,570.35 923.604,591.929 942.037,596.123C1003.12,610.046 917.313,515.901 968.2,526.065C985.577,529.543 984.816,559.642 1006.38,554.428C1025.23,549.863 1025.69,523.812 1018.2,510.892C1009.19,495.349 978.855,494.16 974.521,476.688C969.52,456.529 992.461,457.413 977.053,440.11C970.777,433.075 956.249,436.498 949.029,426.827C935.041,408.066 950.411,407.811 927.748,396.107C915.187,389.624 898.216,399.225 899.941,375.926C873.415,371.032 810.342,386.255 836.077,424.539C845.435,438.45 868.121,439.975 881.183,449.618C894.122,459.161 905.189,474.079 914.771,486.936Z" style="fill:rgb(206,221,73);fill-rule:nonzero;"/>
                <path d="M1061.38,212.137C1037.28,219.148 1012.42,224.423 1006.45,229.466C989.698,243.605 989.119,263.019 968.775,275.827C949.535,287.94 927.107,296.05 907.519,308.106C945.074,329.549 939.625,350.357 899.462,342.242C884.571,339.228 870.601,340.385 855.533,338.186C842.613,336.33 826.383,320.975 813.232,316.337C797.175,310.657 781.064,309.557 764.317,307.238C744.962,304.572 718.767,300.399 724.448,281.391C827.545,236.825 941.246,212.137 1060.69,212.137L1061.38,212.137Z" style="fill:rgb(206,221,73);fill-rule:nonzero;"/>
                <path d="M1909.17,1060.73C1909.17,1074.4 1908.85,1088.07 1908.22,1101.58C1907.11,1125.29 1904.98,1148.84 1901.97,1172.08C1899.92,1187.41 1897.55,1202.58 1894.7,1217.6L1894.7,1217.68C1821.05,1611.32 1475.69,1909.18 1060.7,1909.18C719.06,1909.18 424.676,1707.34 290.249,1416.43C398.44,1466.54 518.879,1494.44 645.882,1494.44C704.837,1494.44 762.45,1488.43 818.006,1476.89C937.182,1452.4 1047.27,1402.84 1142.42,1334.01C1206.75,1287.54 1264.29,1232.3 1313.28,1169.94C1363.62,1105.93 1404.88,1034.49 1435.23,957.589C1440.68,943.918 1445.81,930.011 1450.4,915.941C1462.81,879.351 1472.61,841.577 1479.88,802.931L1479.88,802.854C1482.25,790.127 1484.3,777.328 1486.12,764.524C1486.52,762.151 1486.83,759.7 1487.15,757.331C1490.23,734.016 1492.29,710.546 1493.39,686.756C1493.39,686.127 1493.47,685.413 1493.47,684.78C1494.02,671.899 1494.42,658.938 1494.42,645.899C1494.42,638.235 1494.26,630.49 1494.02,622.823C1494.02,622.032 1494.02,621.245 1493.95,620.453C1493.86,614.684 1493.63,609.073 1493.31,603.463C1487.86,492.031 1460.91,386.209 1416.42,290.109C1527.06,341.242 1624.82,415.529 1703.45,506.652L1703.45,506.729C1714.67,519.768 1725.5,533.046 1735.85,546.718C1740.67,553.039 1745.5,559.441 1750.08,565.924C1842.47,694.501 1899.84,849.874 1908.14,1018.21C1908.45,1024.61 1908.69,1031.09 1908.85,1037.57C1909.09,1045.31 1909.17,1052.98 1909.17,1060.73Z" style="fill:rgb(0,182,203);fill-rule:nonzero;"/>
                <path d="M1909.17,1060.73C1909.17,1074.4 1908.85,1088.07 1908.22,1101.58C1907.67,1101.82 1907.11,1102.14 1906.56,1102.45C1892.73,1110.91 1883.64,1125.37 1867.83,1131.3C1795.84,1158.25 1802.79,1029.27 1735.85,1019.15C1734.75,1044.6 1754.82,1060.17 1766.36,1080.8C1778.85,1103.08 1791.65,1125.06 1802.95,1147.97C1815.67,1173.58 1822.39,1184.88 1852.66,1179.98C1864.2,1178 1888.46,1165.12 1901.97,1172.08C1899.92,1187.41 1897.55,1202.58 1894.7,1217.6L1894.7,1217.68C1871.55,1241.47 1829.9,1263.67 1816.78,1272.13C1800.34,1282.72 1777.19,1290.78 1775.6,1313.22C1773.94,1335.99 1797.18,1352.27 1797.18,1376.53C1797.02,1411.61 1773.47,1400.15 1759.49,1424.42C1745.5,1448.68 1778.21,1448.2 1771.42,1475.16C1750.08,1479.66 1745.89,1505.03 1732.93,1519.65C1724.63,1528.89 1710.49,1535.3 1704.08,1545.41C1697.92,1555.29 1704.01,1566.27 1694.84,1575.44C1682.51,1587.77 1673.02,1578.6 1659.43,1581.53C1622.53,1589.35 1625.53,1599.15 1607.59,1567.93C1599.45,1553.87 1578.35,1537.9 1593.84,1521.78C1553.93,1484.01 1540.18,1414.22 1561.36,1363.17C1576.45,1326.89 1573.37,1332.59 1554.48,1298.13C1542.71,1276.63 1552.5,1255.77 1527.85,1241.15C1506.83,1228.66 1477.11,1234.75 1454.12,1239.57C1423.85,1245.81 1403.61,1248.66 1372.4,1234.75C1347.82,1223.84 1339.52,1199.26 1322.13,1180.85C1318.34,1176.82 1315.42,1173.18 1313.28,1169.94C1363.62,1105.93 1404.88,1034.49 1435.23,957.589C1442.89,957.12 1450.48,956.802 1456.64,955.298C1473.4,951.192 1478.62,947.001 1491.02,935.463C1501.45,925.743 1505.33,907.409 1524.69,919.264C1507.54,965.099 1590.68,990.707 1624.66,988.098C1634.06,950.637 1658.17,977.506 1687.09,978.536C1709.22,979.404 1738.7,976.638 1761.7,974.661C1754.74,960.596 1756.48,943.683 1751.5,929.142C1732.14,926.453 1721.79,940.997 1702.82,934.198C1690.1,929.695 1681.08,917.207 1671.84,908.196C1670.58,911.99 1665.75,915.941 1664.65,921.398C1623.16,916.89 1642.28,893.023 1629.56,867.181C1622.45,852.718 1595.58,837.942 1580.48,832.648C1556.3,824.031 1532.75,831.382 1552.11,857.542C1566.18,876.508 1588.31,876.191 1598.19,901.401C1574.63,898.083 1580.09,930.562 1562.31,934.831C1571.32,907.487 1553.06,857.067 1519.95,849.241C1493.23,842.839 1476.4,882.435 1464.55,899.9C1460.12,906.379 1455.46,911.754 1450.4,915.941C1462.81,879.351 1472.61,841.577 1479.88,802.931L1479.88,802.854C1482.25,790.127 1484.3,777.328 1486.12,764.524C1492.92,761.44 1499.79,759.071 1505.24,757.964C1524.93,754.012 1535.2,760.256 1552.9,749.112C1560.65,744.134 1562.54,735.837 1571.87,731.646C1579.69,728.088 1590.2,733.464 1599.13,728.721C1616.44,719.556 1614.47,703.592 1625.92,689.762C1637.14,676.168 1655.24,676.642 1665.04,662.337C1647.58,653.644 1616.13,643.688 1605.61,629.148C1609.25,614.129 1637.3,558.021 1613.59,550.67C1578.66,539.922 1582.93,610.575 1580.88,624.799C1577.95,645.189 1571.71,691.34 1550.29,698.692C1534.72,703.909 1524.69,691.58 1511.65,687.312C1505.72,685.413 1499.63,685.02 1493.47,684.78C1494.02,671.899 1494.42,658.938 1494.42,645.899C1494.42,638.235 1494.26,630.49 1494.02,622.823C1494.02,622.032 1494.02,621.245 1493.95,620.453C1522.32,599.747 1529.9,580.148 1548.16,550.67C1556.77,536.758 1585.93,499.301 1599.84,491.082C1627.19,474.801 1661.01,502.145 1687.96,505.463C1691.2,505.937 1696.81,506.177 1703.45,506.652L1703.45,506.729C1714.67,519.768 1725.5,533.046 1735.85,546.718C1718.31,554.621 1677.13,559.599 1663.15,564.893C1685.43,579.831 1711.2,609.544 1736.96,586.626C1744.07,580.306 1745.02,572.955 1750.08,565.924C1842.47,694.501 1899.84,849.874 1908.14,1018.21C1893.12,1008.01 1885.53,986.832 1859.3,992.443C1871.7,1003.43 1881.11,1023.03 1894.31,1031.88C1900.16,1035.83 1904.58,1037.25 1908.85,1037.57C1909.09,1045.31 1909.17,1052.98 1909.17,1060.73Z" style="fill:rgb(182,213,78);fill-rule:nonzero;"/>
            </g>
        </g>
    </g>
</svg>
